%TF.GenerationSoftware,KiCad,Pcbnew,(6.0.7)*%
%TF.CreationDate,2022-08-20T21:52:45-04:00*%
%TF.ProjectId,THE_ENCODER,5448455f-454e-4434-9f44-45522e6b6963,rev?*%
%TF.SameCoordinates,Original*%
%TF.FileFunction,Legend,Bot*%
%TF.FilePolarity,Positive*%
%FSLAX46Y46*%
G04 Gerber Fmt 4.6, Leading zero omitted, Abs format (unit mm)*
G04 Created by KiCad (PCBNEW (6.0.7)) date 2022-08-20 21:52:45*
%MOMM*%
%LPD*%
G01*
G04 APERTURE LIST*
G04 Aperture macros list*
%AMRoundRect*
0 Rectangle with rounded corners*
0 $1 Rounding radius*
0 $2 $3 $4 $5 $6 $7 $8 $9 X,Y pos of 4 corners*
0 Add a 4 corners polygon primitive as box body*
4,1,4,$2,$3,$4,$5,$6,$7,$8,$9,$2,$3,0*
0 Add four circle primitives for the rounded corners*
1,1,$1+$1,$2,$3*
1,1,$1+$1,$4,$5*
1,1,$1+$1,$6,$7*
1,1,$1+$1,$8,$9*
0 Add four rect primitives between the rounded corners*
20,1,$1+$1,$2,$3,$4,$5,0*
20,1,$1+$1,$4,$5,$6,$7,0*
20,1,$1+$1,$6,$7,$8,$9,0*
20,1,$1+$1,$8,$9,$2,$3,0*%
G04 Aperture macros list end*
%ADD10C,0.150000*%
%ADD11C,0.125000*%
%ADD12C,0.120000*%
%ADD13R,0.500000X0.500000*%
%ADD14C,2.200000*%
%ADD15R,1.000000X1.000000*%
%ADD16O,1.000000X1.000000*%
%ADD17RoundRect,0.237500X-0.237500X0.300000X-0.237500X-0.300000X0.237500X-0.300000X0.237500X0.300000X0*%
%ADD18RoundRect,0.237500X0.237500X-0.300000X0.237500X0.300000X-0.237500X0.300000X-0.237500X-0.300000X0*%
%ADD19RoundRect,0.100000X0.637500X0.100000X-0.637500X0.100000X-0.637500X-0.100000X0.637500X-0.100000X0*%
G04 APERTURE END LIST*
D10*
X146083333Y-86047619D02*
X146083333Y-85571428D01*
X145797619Y-86142857D02*
X146797619Y-85809523D01*
X145797619Y-85476190D01*
X145845238Y-85190476D02*
X145797619Y-85047619D01*
X145797619Y-84809523D01*
X145845238Y-84714285D01*
X145892857Y-84666666D01*
X145988095Y-84619047D01*
X146083333Y-84619047D01*
X146178571Y-84666666D01*
X146226190Y-84714285D01*
X146273809Y-84809523D01*
X146321428Y-85000000D01*
X146369047Y-85095238D01*
X146416666Y-85142857D01*
X146511904Y-85190476D01*
X146607142Y-85190476D01*
X146702380Y-85142857D01*
X146750000Y-85095238D01*
X146797619Y-85000000D01*
X146797619Y-84761904D01*
X146750000Y-84619047D01*
X146797619Y-83714285D02*
X146797619Y-84190476D01*
X146321428Y-84238095D01*
X146369047Y-84190476D01*
X146416666Y-84095238D01*
X146416666Y-83857142D01*
X146369047Y-83761904D01*
X146321428Y-83714285D01*
X146226190Y-83666666D01*
X145988095Y-83666666D01*
X145892857Y-83714285D01*
X145845238Y-83761904D01*
X145797619Y-83857142D01*
X145797619Y-84095238D01*
X145845238Y-84190476D01*
X145892857Y-84238095D01*
X146797619Y-83047619D02*
X146797619Y-82952380D01*
X146750000Y-82857142D01*
X146702380Y-82809523D01*
X146607142Y-82761904D01*
X146416666Y-82714285D01*
X146178571Y-82714285D01*
X145988095Y-82761904D01*
X145892857Y-82809523D01*
X145845238Y-82857142D01*
X145797619Y-82952380D01*
X145797619Y-83047619D01*
X145845238Y-83142857D01*
X145892857Y-83190476D01*
X145988095Y-83238095D01*
X146178571Y-83285714D01*
X146416666Y-83285714D01*
X146607142Y-83238095D01*
X146702380Y-83190476D01*
X146750000Y-83142857D01*
X146797619Y-83047619D01*
X146464285Y-81857142D02*
X145797619Y-81857142D01*
X146845238Y-82095238D02*
X146130952Y-82333333D01*
X146130952Y-81714285D01*
X146797619Y-81428571D02*
X146797619Y-80761904D01*
X145797619Y-81190476D01*
X145797619Y-79619047D02*
X146797619Y-79619047D01*
X146797619Y-79380952D01*
X146750000Y-79238095D01*
X146654761Y-79142857D01*
X146559523Y-79095238D01*
X146369047Y-79047619D01*
X146226190Y-79047619D01*
X146035714Y-79095238D01*
X145940476Y-79142857D01*
X145845238Y-79238095D01*
X145797619Y-79380952D01*
X145797619Y-79619047D01*
X146845238Y-77904761D02*
X145559523Y-78761904D01*
X146797619Y-77571428D02*
X145988095Y-77571428D01*
X145892857Y-77523809D01*
X145845238Y-77476190D01*
X145797619Y-77380952D01*
X145797619Y-77190476D01*
X145845238Y-77095238D01*
X145892857Y-77047619D01*
X145988095Y-77000000D01*
X146797619Y-77000000D01*
X152821428Y-85857142D02*
X152821428Y-86190476D01*
X152297619Y-86190476D02*
X153297619Y-86190476D01*
X153297619Y-85714285D01*
X152297619Y-84761904D02*
X152773809Y-85095238D01*
X152297619Y-85333333D02*
X153297619Y-85333333D01*
X153297619Y-84952380D01*
X153250000Y-84857142D01*
X153202380Y-84809523D01*
X153107142Y-84761904D01*
X152964285Y-84761904D01*
X152869047Y-84809523D01*
X152821428Y-84857142D01*
X152773809Y-84952380D01*
X152773809Y-85333333D01*
X152392857Y-83761904D02*
X152345238Y-83809523D01*
X152297619Y-83952380D01*
X152297619Y-84047619D01*
X152345238Y-84190476D01*
X152440476Y-84285714D01*
X152535714Y-84333333D01*
X152726190Y-84380952D01*
X152869047Y-84380952D01*
X153059523Y-84333333D01*
X153154761Y-84285714D01*
X153250000Y-84190476D01*
X153297619Y-84047619D01*
X153297619Y-83952380D01*
X153250000Y-83809523D01*
X153202380Y-83761904D01*
X153297619Y-82142857D02*
X153297619Y-82333333D01*
X153250000Y-82428571D01*
X153202380Y-82476190D01*
X153059523Y-82571428D01*
X152869047Y-82619047D01*
X152488095Y-82619047D01*
X152392857Y-82571428D01*
X152345238Y-82523809D01*
X152297619Y-82428571D01*
X152297619Y-82238095D01*
X152345238Y-82142857D01*
X152392857Y-82095238D01*
X152488095Y-82047619D01*
X152726190Y-82047619D01*
X152821428Y-82095238D01*
X152869047Y-82142857D01*
X152916666Y-82238095D01*
X152916666Y-82428571D01*
X152869047Y-82523809D01*
X152821428Y-82571428D01*
X152726190Y-82619047D01*
X153202380Y-81666666D02*
X153250000Y-81619047D01*
X153297619Y-81523809D01*
X153297619Y-81285714D01*
X153250000Y-81190476D01*
X153202380Y-81142857D01*
X153107142Y-81095238D01*
X153011904Y-81095238D01*
X152869047Y-81142857D01*
X152297619Y-81714285D01*
X152297619Y-81095238D01*
X153297619Y-80476190D02*
X153297619Y-80380952D01*
X153250000Y-80285714D01*
X153202380Y-80238095D01*
X153107142Y-80190476D01*
X152916666Y-80142857D01*
X152678571Y-80142857D01*
X152488095Y-80190476D01*
X152392857Y-80238095D01*
X152345238Y-80285714D01*
X152297619Y-80380952D01*
X152297619Y-80476190D01*
X152345238Y-80571428D01*
X152392857Y-80619047D01*
X152488095Y-80666666D01*
X152678571Y-80714285D01*
X152916666Y-80714285D01*
X153107142Y-80666666D01*
X153202380Y-80619047D01*
X153250000Y-80571428D01*
X153297619Y-80476190D01*
X152297619Y-79190476D02*
X152297619Y-79761904D01*
X152297619Y-79476190D02*
X153297619Y-79476190D01*
X153154761Y-79571428D01*
X153059523Y-79666666D01*
X153011904Y-79761904D01*
X152297619Y-78000000D02*
X153297619Y-78000000D01*
X152297619Y-77428571D01*
X153297619Y-77428571D01*
X152964285Y-77047619D02*
X152297619Y-76809523D01*
X152964285Y-76571428D02*
X152297619Y-76809523D01*
X152059523Y-76904761D01*
X152011904Y-76952380D01*
X151964285Y-77047619D01*
X152345238Y-75809523D02*
X152297619Y-75904761D01*
X152297619Y-76095238D01*
X152345238Y-76190476D01*
X152440476Y-76238095D01*
X152821428Y-76238095D01*
X152916666Y-76190476D01*
X152964285Y-76095238D01*
X152964285Y-75904761D01*
X152916666Y-75809523D01*
X152821428Y-75761904D01*
X152726190Y-75761904D01*
X152630952Y-76238095D01*
X120547619Y-95166666D02*
X120071428Y-95166666D01*
X120642857Y-95452380D02*
X120309523Y-94452380D01*
X119976190Y-95452380D01*
X119690476Y-95404761D02*
X119547619Y-95452380D01*
X119309523Y-95452380D01*
X119214285Y-95404761D01*
X119166666Y-95357142D01*
X119119047Y-95261904D01*
X119119047Y-95166666D01*
X119166666Y-95071428D01*
X119214285Y-95023809D01*
X119309523Y-94976190D01*
X119500000Y-94928571D01*
X119595238Y-94880952D01*
X119642857Y-94833333D01*
X119690476Y-94738095D01*
X119690476Y-94642857D01*
X119642857Y-94547619D01*
X119595238Y-94500000D01*
X119500000Y-94452380D01*
X119261904Y-94452380D01*
X119119047Y-94500000D01*
X118214285Y-94452380D02*
X118690476Y-94452380D01*
X118738095Y-94928571D01*
X118690476Y-94880952D01*
X118595238Y-94833333D01*
X118357142Y-94833333D01*
X118261904Y-94880952D01*
X118214285Y-94928571D01*
X118166666Y-95023809D01*
X118166666Y-95261904D01*
X118214285Y-95357142D01*
X118261904Y-95404761D01*
X118357142Y-95452380D01*
X118595238Y-95452380D01*
X118690476Y-95404761D01*
X118738095Y-95357142D01*
X117547619Y-94452380D02*
X117452380Y-94452380D01*
X117357142Y-94500000D01*
X117309523Y-94547619D01*
X117261904Y-94642857D01*
X117214285Y-94833333D01*
X117214285Y-95071428D01*
X117261904Y-95261904D01*
X117309523Y-95357142D01*
X117357142Y-95404761D01*
X117452380Y-95452380D01*
X117547619Y-95452380D01*
X117642857Y-95404761D01*
X117690476Y-95357142D01*
X117738095Y-95261904D01*
X117785714Y-95071428D01*
X117785714Y-94833333D01*
X117738095Y-94642857D01*
X117690476Y-94547619D01*
X117642857Y-94500000D01*
X117547619Y-94452380D01*
X116357142Y-94785714D02*
X116357142Y-95452380D01*
X116595238Y-94404761D02*
X116833333Y-95119047D01*
X116214285Y-95119047D01*
X115928571Y-94452380D02*
X115261904Y-94452380D01*
X115690476Y-95452380D01*
X114119047Y-95452380D02*
X114119047Y-94452380D01*
X113880952Y-94452380D01*
X113738095Y-94500000D01*
X113642857Y-94595238D01*
X113595238Y-94690476D01*
X113547619Y-94880952D01*
X113547619Y-95023809D01*
X113595238Y-95214285D01*
X113642857Y-95309523D01*
X113738095Y-95404761D01*
X113880952Y-95452380D01*
X114119047Y-95452380D01*
X112404761Y-94404761D02*
X113261904Y-95690476D01*
X112071428Y-94452380D02*
X112071428Y-95261904D01*
X112023809Y-95357142D01*
X111976190Y-95404761D01*
X111880952Y-95452380D01*
X111690476Y-95452380D01*
X111595238Y-95404761D01*
X111547619Y-95357142D01*
X111500000Y-95261904D01*
X111500000Y-94452380D01*
X134619047Y-75178571D02*
X134476190Y-75226190D01*
X134428571Y-75273809D01*
X134380952Y-75369047D01*
X134380952Y-75511904D01*
X134428571Y-75607142D01*
X134476190Y-75654761D01*
X134571428Y-75702380D01*
X134952380Y-75702380D01*
X134952380Y-74702380D01*
X134619047Y-74702380D01*
X134523809Y-74750000D01*
X134476190Y-74797619D01*
X134428571Y-74892857D01*
X134428571Y-74988095D01*
X134476190Y-75083333D01*
X134523809Y-75130952D01*
X134619047Y-75178571D01*
X134952380Y-75178571D01*
X133809523Y-75702380D02*
X133904761Y-75654761D01*
X133952380Y-75607142D01*
X134000000Y-75511904D01*
X134000000Y-75226190D01*
X133952380Y-75130952D01*
X133904761Y-75083333D01*
X133809523Y-75035714D01*
X133666666Y-75035714D01*
X133571428Y-75083333D01*
X133523809Y-75130952D01*
X133476190Y-75226190D01*
X133476190Y-75511904D01*
X133523809Y-75607142D01*
X133571428Y-75654761D01*
X133666666Y-75702380D01*
X133809523Y-75702380D01*
X132904761Y-75702380D02*
X133000000Y-75654761D01*
X133047619Y-75607142D01*
X133095238Y-75511904D01*
X133095238Y-75226190D01*
X133047619Y-75130952D01*
X133000000Y-75083333D01*
X132904761Y-75035714D01*
X132761904Y-75035714D01*
X132666666Y-75083333D01*
X132619047Y-75130952D01*
X132571428Y-75226190D01*
X132571428Y-75511904D01*
X132619047Y-75607142D01*
X132666666Y-75654761D01*
X132761904Y-75702380D01*
X132904761Y-75702380D01*
X132285714Y-75035714D02*
X131904761Y-75035714D01*
X132142857Y-74702380D02*
X132142857Y-75559523D01*
X132095238Y-75654761D01*
X132000000Y-75702380D01*
X131904761Y-75702380D01*
X131428571Y-75702380D02*
X131523809Y-75654761D01*
X131571428Y-75559523D01*
X131571428Y-74702380D01*
X130666666Y-75654761D02*
X130761904Y-75702380D01*
X130952380Y-75702380D01*
X131047619Y-75654761D01*
X131095238Y-75559523D01*
X131095238Y-75178571D01*
X131047619Y-75083333D01*
X130952380Y-75035714D01*
X130761904Y-75035714D01*
X130666666Y-75083333D01*
X130619047Y-75178571D01*
X130619047Y-75273809D01*
X131095238Y-75369047D01*
X129761904Y-75035714D02*
X129761904Y-75845238D01*
X129809523Y-75940476D01*
X129857142Y-75988095D01*
X129952380Y-76035714D01*
X130095238Y-76035714D01*
X130190476Y-75988095D01*
X129761904Y-75654761D02*
X129857142Y-75702380D01*
X130047619Y-75702380D01*
X130142857Y-75654761D01*
X130190476Y-75607142D01*
X130238095Y-75511904D01*
X130238095Y-75226190D01*
X130190476Y-75130952D01*
X130142857Y-75083333D01*
X130047619Y-75035714D01*
X129857142Y-75035714D01*
X129761904Y-75083333D01*
X128523809Y-75178571D02*
X128190476Y-75178571D01*
X128047619Y-75702380D02*
X128523809Y-75702380D01*
X128523809Y-74702380D01*
X128047619Y-74702380D01*
X127619047Y-75035714D02*
X127619047Y-75702380D01*
X127619047Y-75130952D02*
X127571428Y-75083333D01*
X127476190Y-75035714D01*
X127333333Y-75035714D01*
X127238095Y-75083333D01*
X127190476Y-75178571D01*
X127190476Y-75702380D01*
X126285714Y-75654761D02*
X126380952Y-75702380D01*
X126571428Y-75702380D01*
X126666666Y-75654761D01*
X126714285Y-75607142D01*
X126761904Y-75511904D01*
X126761904Y-75226190D01*
X126714285Y-75130952D01*
X126666666Y-75083333D01*
X126571428Y-75035714D01*
X126380952Y-75035714D01*
X126285714Y-75083333D01*
X125714285Y-75702380D02*
X125809523Y-75654761D01*
X125857142Y-75607142D01*
X125904761Y-75511904D01*
X125904761Y-75226190D01*
X125857142Y-75130952D01*
X125809523Y-75083333D01*
X125714285Y-75035714D01*
X125571428Y-75035714D01*
X125476190Y-75083333D01*
X125428571Y-75130952D01*
X125380952Y-75226190D01*
X125380952Y-75511904D01*
X125428571Y-75607142D01*
X125476190Y-75654761D01*
X125571428Y-75702380D01*
X125714285Y-75702380D01*
X124523809Y-75702380D02*
X124523809Y-74702380D01*
X124523809Y-75654761D02*
X124619047Y-75702380D01*
X124809523Y-75702380D01*
X124904761Y-75654761D01*
X124952380Y-75607142D01*
X125000000Y-75511904D01*
X125000000Y-75226190D01*
X124952380Y-75130952D01*
X124904761Y-75083333D01*
X124809523Y-75035714D01*
X124619047Y-75035714D01*
X124523809Y-75083333D01*
X123666666Y-75654761D02*
X123761904Y-75702380D01*
X123952380Y-75702380D01*
X124047619Y-75654761D01*
X124095238Y-75559523D01*
X124095238Y-75178571D01*
X124047619Y-75083333D01*
X123952380Y-75035714D01*
X123761904Y-75035714D01*
X123666666Y-75083333D01*
X123619047Y-75178571D01*
X123619047Y-75273809D01*
X124095238Y-75369047D01*
X123190476Y-75702380D02*
X123190476Y-75035714D01*
X123190476Y-75226190D02*
X123142857Y-75130952D01*
X123095238Y-75083333D01*
X123000000Y-75035714D01*
X122904761Y-75035714D01*
X143559523Y-86452380D02*
X143559523Y-85452380D01*
X143321428Y-85452380D01*
X143178571Y-85500000D01*
X143083333Y-85595238D01*
X143035714Y-85690476D01*
X142988095Y-85880952D01*
X142988095Y-86023809D01*
X143035714Y-86214285D01*
X143083333Y-86309523D01*
X143178571Y-86404761D01*
X143321428Y-86452380D01*
X143559523Y-86452380D01*
X142559523Y-85928571D02*
X142226190Y-85928571D01*
X142083333Y-86452380D02*
X142559523Y-86452380D01*
X142559523Y-85452380D01*
X142083333Y-85452380D01*
X141321428Y-85928571D02*
X141654761Y-85928571D01*
X141654761Y-86452380D02*
X141654761Y-85452380D01*
X141178571Y-85452380D01*
X140035714Y-86452380D02*
X140035714Y-85452380D01*
X139464285Y-86452380D01*
X139464285Y-85452380D01*
X138988095Y-85928571D02*
X138654761Y-85928571D01*
X138511904Y-86452380D02*
X138988095Y-86452380D01*
X138988095Y-85452380D01*
X138511904Y-85452380D01*
X138226190Y-85452380D02*
X137654761Y-85452380D01*
X137940476Y-86452380D02*
X137940476Y-85452380D01*
X136702380Y-85452380D02*
X136130952Y-85452380D01*
X136416666Y-86452380D02*
X136416666Y-85452380D01*
X135797619Y-86452380D02*
X135797619Y-85452380D01*
X135321428Y-85928571D02*
X134988095Y-85928571D01*
X134845238Y-86452380D02*
X135321428Y-86452380D01*
X135321428Y-85452380D01*
X134845238Y-85452380D01*
X134464285Y-86404761D02*
X134321428Y-86452380D01*
X134083333Y-86452380D01*
X133988095Y-86404761D01*
X133940476Y-86357142D01*
X133892857Y-86261904D01*
X133892857Y-86166666D01*
X133940476Y-86071428D01*
X133988095Y-86023809D01*
X134083333Y-85976190D01*
X134273809Y-85928571D01*
X134369047Y-85880952D01*
X134416666Y-85833333D01*
X134464285Y-85738095D01*
X134464285Y-85642857D01*
X134416666Y-85547619D01*
X134369047Y-85500000D01*
X134273809Y-85452380D01*
X134035714Y-85452380D01*
X133892857Y-85500000D01*
%TO.C,J2*%
X126833333Y-84702380D02*
X126833333Y-85416666D01*
X126880952Y-85559523D01*
X126976190Y-85654761D01*
X127119047Y-85702380D01*
X127214285Y-85702380D01*
X126404761Y-84797619D02*
X126357142Y-84750000D01*
X126261904Y-84702380D01*
X126023809Y-84702380D01*
X125928571Y-84750000D01*
X125880952Y-84797619D01*
X125833333Y-84892857D01*
X125833333Y-84988095D01*
X125880952Y-85130952D01*
X126452380Y-85702380D01*
X125833333Y-85702380D01*
%TO.C,C1*%
X131007142Y-78573333D02*
X131054761Y-78525714D01*
X131102380Y-78382857D01*
X131102380Y-78287619D01*
X131054761Y-78144761D01*
X130959523Y-78049523D01*
X130864285Y-78001904D01*
X130673809Y-77954285D01*
X130530952Y-77954285D01*
X130340476Y-78001904D01*
X130245238Y-78049523D01*
X130150000Y-78144761D01*
X130102380Y-78287619D01*
X130102380Y-78382857D01*
X130150000Y-78525714D01*
X130197619Y-78573333D01*
X131102380Y-79525714D02*
X131102380Y-78954285D01*
X131102380Y-79240000D02*
X130102380Y-79240000D01*
X130245238Y-79144761D01*
X130340476Y-79049523D01*
X130388095Y-78954285D01*
D11*
%TO.C,C2*%
X133428571Y-81916666D02*
X133452380Y-81892857D01*
X133476190Y-81821428D01*
X133476190Y-81773809D01*
X133452380Y-81702380D01*
X133404761Y-81654761D01*
X133357142Y-81630952D01*
X133261904Y-81607142D01*
X133190476Y-81607142D01*
X133095238Y-81630952D01*
X133047619Y-81654761D01*
X133000000Y-81702380D01*
X132976190Y-81773809D01*
X132976190Y-81821428D01*
X133000000Y-81892857D01*
X133023809Y-81916666D01*
X133023809Y-82107142D02*
X133000000Y-82130952D01*
X132976190Y-82178571D01*
X132976190Y-82297619D01*
X133000000Y-82345238D01*
X133023809Y-82369047D01*
X133071428Y-82392857D01*
X133119047Y-82392857D01*
X133190476Y-82369047D01*
X133476190Y-82083333D01*
X133476190Y-82392857D01*
D10*
%TO.C,U1*%
X138271904Y-76567380D02*
X138271904Y-77376904D01*
X138224285Y-77472142D01*
X138176666Y-77519761D01*
X138081428Y-77567380D01*
X137890952Y-77567380D01*
X137795714Y-77519761D01*
X137748095Y-77472142D01*
X137700476Y-77376904D01*
X137700476Y-76567380D01*
X136700476Y-77567380D02*
X137271904Y-77567380D01*
X136986190Y-77567380D02*
X136986190Y-76567380D01*
X137081428Y-76710238D01*
X137176666Y-76805476D01*
X137271904Y-76853095D01*
D12*
%TO.C,J2*%
X126060000Y-83865000D02*
X126702470Y-83865000D01*
X128280000Y-83930000D02*
X129230000Y-83930000D01*
X129040000Y-82535000D02*
X129230000Y-82535000D01*
X128587530Y-77395000D02*
X129230000Y-77395000D01*
X126060000Y-77395000D02*
X126702470Y-77395000D01*
X129230000Y-83930000D02*
X129230000Y-83170000D01*
X127317530Y-77395000D02*
X127972470Y-77395000D01*
X129230000Y-82535000D02*
X129230000Y-77395000D01*
X126060000Y-83865000D02*
X126060000Y-77395000D01*
X127317530Y-83865000D02*
X127520000Y-83865000D01*
%TO.C,C1*%
X132590000Y-78593733D02*
X132590000Y-78886267D01*
X131570000Y-78593733D02*
X131570000Y-78886267D01*
%TO.C,C2*%
X132590000Y-82696267D02*
X132590000Y-82403733D01*
X131570000Y-82696267D02*
X131570000Y-82403733D01*
%TO.C,U1*%
X137510000Y-83175000D02*
X135310000Y-83175000D01*
X137510000Y-77955000D02*
X141110000Y-77955000D01*
X137510000Y-77955000D02*
X135310000Y-77955000D01*
X137510000Y-83175000D02*
X139710000Y-83175000D01*
%TD*%
%LPC*%
%TO.C,NT6*%
G36*
X138815000Y-84405000D02*
G01*
X139315000Y-84405000D01*
X139315000Y-84605000D01*
X138815000Y-84605000D01*
X138815000Y-84405000D01*
G37*
%TO.C,NT5*%
G36*
X141355000Y-84340000D02*
G01*
X141855000Y-84340000D01*
X141855000Y-84540000D01*
X141355000Y-84540000D01*
X141355000Y-84340000D01*
G37*
%TO.C,NT4*%
G36*
X136275000Y-84405000D02*
G01*
X136775000Y-84405000D01*
X136775000Y-84605000D01*
X136275000Y-84605000D01*
X136275000Y-84405000D01*
G37*
%TD*%
D13*
%TO.C,NT6*%
X139065000Y-84155000D03*
X139065000Y-84855000D03*
%TD*%
%TO.C,NT5*%
X141605000Y-84090000D03*
X141605000Y-84790000D03*
%TD*%
%TO.C,NT4*%
X136525000Y-84155000D03*
X136525000Y-84855000D03*
%TD*%
D14*
%TO.C,H2*%
X149500000Y-78250000D03*
%TD*%
%TO.C,H1*%
X149500000Y-84750000D03*
%TD*%
%TO.C,H3*%
X119500000Y-81750000D03*
%TD*%
D15*
%TO.C,J1*%
X144145000Y-76835000D03*
D16*
X144145000Y-78105000D03*
X144145000Y-79375000D03*
X144145000Y-80645000D03*
X144145000Y-81915000D03*
%TD*%
%TO.C,J2*%
X127010000Y-78090000D03*
X128280000Y-78090000D03*
X127010000Y-79360000D03*
X128280000Y-79360000D03*
X127010000Y-80630000D03*
X128280000Y-80630000D03*
X127010000Y-81900000D03*
X128280000Y-81900000D03*
X127010000Y-83170000D03*
D15*
X128280000Y-83170000D03*
%TD*%
D17*
%TO.C,C1*%
X132080000Y-77877500D03*
X132080000Y-79602500D03*
%TD*%
D18*
%TO.C,C2*%
X132080000Y-83412500D03*
X132080000Y-81687500D03*
%TD*%
D19*
%TO.C,U1*%
X140372500Y-78615000D03*
X140372500Y-79265000D03*
X140372500Y-79915000D03*
X140372500Y-80565000D03*
X140372500Y-81215000D03*
X140372500Y-81865000D03*
X140372500Y-82515000D03*
X134647500Y-82515000D03*
X134647500Y-81865000D03*
X134647500Y-81215000D03*
X134647500Y-80565000D03*
X134647500Y-79915000D03*
X134647500Y-79265000D03*
X134647500Y-78615000D03*
%TD*%
M02*
