M48
; DRILL file {KiCad (6.0.7)} date Sat Aug 20 21:53:38 2022
; FORMAT={-:-/ absolute / metric / decimal}
; #@! TF.CreationDate,2022-08-20T21:53:38-04:00
; #@! TF.GenerationSoftware,Kicad,Pcbnew,(6.0.7)
; #@! TF.FileFunction,Plated,1,2,PTH
FMAT,2
METRIC
; #@! TA.AperFunction,Plated,PTH,ViaDrill
T1C0.400
; #@! TA.AperFunction,Plated,PTH,ComponentDrill
T2C0.650
; #@! TA.AperFunction,Plated,PTH,ComponentDrill
T3C0.700
%
G90
G05
T1
X122.0Y-85.0
X122.25Y-79.25
X124.75Y-86.75
X125.095Y-81.915
X125.25Y-76.0
X128.27Y-85.635
X130.86Y-78.79
X131.25Y-84.13
X132.0Y-87.25
X132.715Y-80.645
X132.762Y-76.262
X133.043Y-84.13
X133.35Y-78.74
X133.352Y-83.18
X135.984Y-81.915
X137.5Y-75.0
X137.795Y-83.82
X139.29Y-83.05
X142.5Y-87.25
X142.975Y-82.118
X144.145Y-84.455
X147.0Y-75.75
X149.0Y-82.25
X151.25Y-84.0
X151.75Y-75.25
T2
X144.145Y-76.835
X144.145Y-78.105
X144.145Y-79.375
X144.145Y-80.645
X144.145Y-81.915
T3
X127.01Y-78.09
X127.01Y-79.36
X127.01Y-80.63
X127.01Y-81.9
X127.01Y-83.17
X128.28Y-78.09
X128.28Y-79.36
X128.28Y-80.63
X128.28Y-81.9
X128.28Y-83.17
T0
M30
