%TF.GenerationSoftware,KiCad,Pcbnew,(6.0.7)*%
%TF.CreationDate,2022-08-20T21:52:45-04:00*%
%TF.ProjectId,THE_ENCODER,5448455f-454e-4434-9f44-45522e6b6963,rev?*%
%TF.SameCoordinates,Original*%
%TF.FileFunction,Soldermask,Top*%
%TF.FilePolarity,Negative*%
%FSLAX46Y46*%
G04 Gerber Fmt 4.6, Leading zero omitted, Abs format (unit mm)*
G04 Created by KiCad (PCBNEW (6.0.7)) date 2022-08-20 21:52:45*
%MOMM*%
%LPD*%
G01*
G04 APERTURE LIST*
G04 Aperture macros list*
%AMRoundRect*
0 Rectangle with rounded corners*
0 $1 Rounding radius*
0 $2 $3 $4 $5 $6 $7 $8 $9 X,Y pos of 4 corners*
0 Add a 4 corners polygon primitive as box body*
4,1,4,$2,$3,$4,$5,$6,$7,$8,$9,$2,$3,0*
0 Add four circle primitives for the rounded corners*
1,1,$1+$1,$2,$3*
1,1,$1+$1,$4,$5*
1,1,$1+$1,$6,$7*
1,1,$1+$1,$8,$9*
0 Add four rect primitives between the rounded corners*
20,1,$1+$1,$2,$3,$4,$5,0*
20,1,$1+$1,$4,$5,$6,$7,0*
20,1,$1+$1,$6,$7,$8,$9,0*
20,1,$1+$1,$8,$9,$2,$3,0*%
G04 Aperture macros list end*
%ADD10R,0.500000X0.500000*%
%ADD11C,2.200000*%
%ADD12RoundRect,0.237500X-0.287500X-0.237500X0.287500X-0.237500X0.287500X0.237500X-0.287500X0.237500X0*%
%ADD13RoundRect,0.237500X0.250000X0.237500X-0.250000X0.237500X-0.250000X-0.237500X0.250000X-0.237500X0*%
%ADD14R,1.000000X1.000000*%
%ADD15O,1.000000X1.000000*%
G04 APERTURE END LIST*
%TO.C,NT3*%
G36*
X138045000Y-84405000D02*
G01*
X137545000Y-84405000D01*
X137545000Y-84605000D01*
X138045000Y-84605000D01*
X138045000Y-84405000D01*
G37*
%TO.C,NT2*%
G36*
X135505000Y-84405000D02*
G01*
X135005000Y-84405000D01*
X135005000Y-84605000D01*
X135505000Y-84605000D01*
X135505000Y-84405000D01*
G37*
%TO.C,NT1*%
G36*
X140585000Y-84405000D02*
G01*
X140085000Y-84405000D01*
X140085000Y-84605000D01*
X140585000Y-84605000D01*
X140585000Y-84405000D01*
G37*
%TD*%
D10*
%TO.C,NT3*%
X137795000Y-84155000D03*
X137795000Y-84855000D03*
%TD*%
%TO.C,NT2*%
X135255000Y-84155000D03*
X135255000Y-84855000D03*
%TD*%
%TO.C,NT1*%
X140335000Y-84155000D03*
X140335000Y-84855000D03*
%TD*%
D11*
%TO.C,H2*%
X149500000Y-78250000D03*
%TD*%
D12*
%TO.C,D1*%
X138825000Y-76835000D03*
X140575000Y-76835000D03*
%TD*%
D11*
%TO.C,H1*%
X149500000Y-84750000D03*
%TD*%
%TO.C,H3*%
X119500000Y-81750000D03*
%TD*%
D13*
%TO.C,R1*%
X134342500Y-76835000D03*
X136167500Y-76835000D03*
%TD*%
D14*
%TO.C,J1*%
X144145000Y-76835000D03*
D15*
X144145000Y-78105000D03*
X144145000Y-79375000D03*
X144145000Y-80645000D03*
X144145000Y-81915000D03*
%TD*%
%TO.C,J2*%
X127010000Y-78090000D03*
X128280000Y-78090000D03*
X127010000Y-79360000D03*
X128280000Y-79360000D03*
X127010000Y-80630000D03*
X128280000Y-80630000D03*
X127010000Y-81900000D03*
X128280000Y-81900000D03*
X127010000Y-83170000D03*
D14*
X128280000Y-83170000D03*
%TD*%
M02*
