%TF.GenerationSoftware,KiCad,Pcbnew,(6.0.7)*%
%TF.CreationDate,2022-08-20T21:52:45-04:00*%
%TF.ProjectId,THE_ENCODER,5448455f-454e-4434-9f44-45522e6b6963,rev?*%
%TF.SameCoordinates,Original*%
%TF.FileFunction,Copper,L2,Bot*%
%TF.FilePolarity,Positive*%
%FSLAX46Y46*%
G04 Gerber Fmt 4.6, Leading zero omitted, Abs format (unit mm)*
G04 Created by KiCad (PCBNEW (6.0.7)) date 2022-08-20 21:52:45*
%MOMM*%
%LPD*%
G01*
G04 APERTURE LIST*
G04 Aperture macros list*
%AMRoundRect*
0 Rectangle with rounded corners*
0 $1 Rounding radius*
0 $2 $3 $4 $5 $6 $7 $8 $9 X,Y pos of 4 corners*
0 Add a 4 corners polygon primitive as box body*
4,1,4,$2,$3,$4,$5,$6,$7,$8,$9,$2,$3,0*
0 Add four circle primitives for the rounded corners*
1,1,$1+$1,$2,$3*
1,1,$1+$1,$4,$5*
1,1,$1+$1,$6,$7*
1,1,$1+$1,$8,$9*
0 Add four rect primitives between the rounded corners*
20,1,$1+$1,$2,$3,$4,$5,0*
20,1,$1+$1,$4,$5,$6,$7,0*
20,1,$1+$1,$6,$7,$8,$9,0*
20,1,$1+$1,$8,$9,$2,$3,0*%
G04 Aperture macros list end*
%TA.AperFunction,SMDPad,CuDef*%
%ADD10R,0.500000X0.500000*%
%TD*%
%TA.AperFunction,ComponentPad*%
%ADD11R,1.000000X1.000000*%
%TD*%
%TA.AperFunction,ComponentPad*%
%ADD12O,1.000000X1.000000*%
%TD*%
%TA.AperFunction,SMDPad,CuDef*%
%ADD13RoundRect,0.237500X-0.237500X0.300000X-0.237500X-0.300000X0.237500X-0.300000X0.237500X0.300000X0*%
%TD*%
%TA.AperFunction,SMDPad,CuDef*%
%ADD14RoundRect,0.237500X0.237500X-0.300000X0.237500X0.300000X-0.237500X0.300000X-0.237500X-0.300000X0*%
%TD*%
%TA.AperFunction,SMDPad,CuDef*%
%ADD15RoundRect,0.100000X0.637500X0.100000X-0.637500X0.100000X-0.637500X-0.100000X0.637500X-0.100000X0*%
%TD*%
%TA.AperFunction,ViaPad*%
%ADD16C,0.800000*%
%TD*%
%TA.AperFunction,Conductor*%
%ADD17C,0.250000*%
%TD*%
G04 APERTURE END LIST*
D10*
%TO.P,NT6,1,1*%
%TO.N,/b_norm*%
X139065000Y-84155000D03*
%TO.P,NT6,2,2*%
%TO.N,/b_def*%
X139065000Y-84855000D03*
%TD*%
%TO.P,NT5,1,1*%
%TO.N,/a_norm*%
X141605000Y-84090000D03*
%TO.P,NT5,2,2*%
%TO.N,/a_def*%
X141605000Y-84790000D03*
%TD*%
%TO.P,NT4,1,1*%
%TO.N,/i_norm*%
X136525000Y-84155000D03*
%TO.P,NT4,2,2*%
%TO.N,/i_def*%
X136525000Y-84855000D03*
%TD*%
D11*
%TO.P,J1,1,Pin_1*%
%TO.N,GND*%
X144145000Y-76835000D03*
D12*
%TO.P,J1,2,Pin_2*%
%TO.N,Net-(J1-Pad2)*%
X144145000Y-78105000D03*
%TO.P,J1,3,Pin_3*%
%TO.N,Net-(J1-Pad3)*%
X144145000Y-79375000D03*
%TO.P,J1,4,Pin_4*%
%TO.N,Net-(J1-Pad4)*%
X144145000Y-80645000D03*
%TO.P,J1,5,Pin_5*%
%TO.N,Net-(J1-Pad5)*%
X144145000Y-81915000D03*
%TD*%
%TO.P,J2,10,Pin_10*%
%TO.N,GND*%
X127010000Y-78090000D03*
%TO.P,J2,9,Pin_9*%
%TO.N,/i_def*%
X128280000Y-78090000D03*
%TO.P,J2,8,Pin_8*%
%TO.N,/b_alt*%
X127010000Y-79360000D03*
%TO.P,J2,7,Pin_7*%
%TO.N,/a_def*%
X128280000Y-79360000D03*
%TO.P,J2,6,Pin_6*%
%TO.N,/a_alt*%
X127010000Y-80630000D03*
%TO.P,J2,5,Pin_5*%
%TO.N,/b_def*%
X128280000Y-80630000D03*
%TO.P,J2,4,Pin_4*%
%TO.N,/i_alt*%
X127010000Y-81900000D03*
%TO.P,J2,3,Pin_3*%
%TO.N,unconnected-(J2-Pad3)*%
X128280000Y-81900000D03*
%TO.P,J2,2,Pin_2*%
%TO.N,/5v*%
X127010000Y-83170000D03*
D11*
%TO.P,J2,1,Pin_1*%
%TO.N,/3v3*%
X128280000Y-83170000D03*
%TD*%
D13*
%TO.P,C1,1*%
%TO.N,GND*%
X132080000Y-77877500D03*
%TO.P,C1,2*%
%TO.N,Net-(C1-Pad2)*%
X132080000Y-79602500D03*
%TD*%
D14*
%TO.P,C2,1*%
%TO.N,/5v*%
X132080000Y-83412500D03*
%TO.P,C2,2*%
%TO.N,GND*%
X132080000Y-81687500D03*
%TD*%
D15*
%TO.P,U1,1,~{CS}*%
%TO.N,Net-(J1-Pad2)*%
X140372500Y-78615000D03*
%TO.P,U1,2,CLK*%
%TO.N,Net-(J1-Pad3)*%
X140372500Y-79265000D03*
%TO.P,U1,3,MISO*%
%TO.N,Net-(J1-Pad4)*%
X140372500Y-79915000D03*
%TO.P,U1,4,MOSI*%
%TO.N,Net-(J1-Pad5)*%
X140372500Y-80565000D03*
%TO.P,U1,5,TST*%
%TO.N,GND*%
X140372500Y-81215000D03*
%TO.P,U1,6,B*%
%TO.N,/b_norm*%
X140372500Y-81865000D03*
%TO.P,U1,7,A*%
%TO.N,/a_norm*%
X140372500Y-82515000D03*
%TO.P,U1,8,W/PWM*%
%TO.N,unconnected-(U1-Pad8)*%
X134647500Y-82515000D03*
%TO.P,U1,9,V*%
%TO.N,unconnected-(U1-Pad9)*%
X134647500Y-81865000D03*
%TO.P,U1,10,U*%
%TO.N,unconnected-(U1-Pad10)*%
X134647500Y-81215000D03*
%TO.P,U1,11,VDD*%
%TO.N,/5v*%
X134647500Y-80565000D03*
%TO.P,U1,12,VDD3V3*%
%TO.N,Net-(C1-Pad2)*%
X134647500Y-79915000D03*
%TO.P,U1,13,GND*%
%TO.N,GND*%
X134647500Y-79265000D03*
%TO.P,U1,14,I/PWM*%
%TO.N,/i_norm*%
X134647500Y-78615000D03*
%TD*%
D16*
%TO.N,GND*%
X132000000Y-87250000D03*
X151750000Y-75250000D03*
X147000000Y-75750000D03*
X149000000Y-82250000D03*
X151250000Y-84000000D03*
X142500000Y-87250000D03*
X125250000Y-76000000D03*
X124750000Y-86750000D03*
X122000000Y-85000000D03*
X122250000Y-79250000D03*
%TO.N,/5v*%
X131250000Y-84130500D03*
%TO.N,GND*%
X132762299Y-76262299D03*
X142974500Y-82117745D03*
X137500000Y-75000000D03*
%TO.N,/a_norm*%
X139290000Y-83050000D03*
%TO.N,/b_norm*%
X137795000Y-83820000D03*
%TO.N,/i_norm*%
X135984500Y-81915000D03*
%TO.N,/a_def*%
X144145000Y-84455000D03*
X132715000Y-80645000D03*
%TO.N,/i_def*%
X133351639Y-83179957D03*
%TO.N,/b_def*%
X133042652Y-84130500D03*
%TO.N,/i_norm*%
X133350000Y-78740000D03*
%TO.N,/b_alt*%
X128270000Y-85635500D03*
%TO.N,/i_alt*%
X125095000Y-81915000D03*
%TO.N,Net-(C1-Pad2)*%
X130859552Y-78789552D03*
%TD*%
D17*
%TO.N,/5v*%
X131362000Y-84130500D02*
X132080000Y-83412500D01*
X131250000Y-84130500D02*
X131362000Y-84130500D01*
%TO.N,GND*%
X142071755Y-81215000D02*
X142974500Y-82117745D01*
X140372500Y-81215000D02*
X142071755Y-81215000D01*
X137500000Y-79250000D02*
X137500000Y-77750000D01*
X139465000Y-81215000D02*
X137500000Y-79250000D01*
X140372500Y-81215000D02*
X139465000Y-81215000D01*
X137500000Y-77750000D02*
X137500000Y-75000000D01*
X135985000Y-79265000D02*
X137500000Y-77750000D01*
X134647500Y-79265000D02*
X135985000Y-79265000D01*
%TO.N,/a_norm*%
X141605000Y-83747500D02*
X140372500Y-82515000D01*
X141605000Y-84090000D02*
X141605000Y-83747500D01*
X139837500Y-83050000D02*
X140372500Y-82515000D01*
X139290000Y-83050000D02*
X139837500Y-83050000D01*
%TO.N,/b_norm*%
X139683959Y-81865000D02*
X140372500Y-81865000D01*
X139358959Y-82190000D02*
X139683959Y-81865000D01*
X137880000Y-82190000D02*
X139358959Y-82190000D01*
X137795000Y-82275000D02*
X137880000Y-82190000D01*
X137795000Y-83820000D02*
X137795000Y-82275000D01*
X138130000Y-84155000D02*
X137795000Y-83820000D01*
X139065000Y-84155000D02*
X138130000Y-84155000D01*
%TO.N,/i_norm*%
X136525000Y-82455500D02*
X135984500Y-81915000D01*
X136525000Y-84155000D02*
X136525000Y-82455500D01*
%TO.N,/a_def*%
X143810000Y-84790000D02*
X141605000Y-84790000D01*
X144145000Y-84455000D02*
X143810000Y-84790000D01*
X129565000Y-80645000D02*
X132715000Y-80645000D01*
X128280000Y-79360000D02*
X129565000Y-80645000D01*
%TO.N,/i_def*%
X135026682Y-84855000D02*
X136525000Y-84855000D01*
X133351639Y-83179957D02*
X135026682Y-84855000D01*
%TO.N,/b_def*%
X138430000Y-86360000D02*
X139065000Y-85725000D01*
X135272152Y-86360000D02*
X138430000Y-86360000D01*
X133042652Y-84130500D02*
X135272152Y-86360000D01*
X139065000Y-85725000D02*
X139065000Y-85090000D01*
%TO.N,/i_norm*%
X134522500Y-78740000D02*
X134647500Y-78615000D01*
X133350000Y-78740000D02*
X134522500Y-78740000D01*
%TO.N,/b_alt*%
X127368320Y-85635500D02*
X128270000Y-85635500D01*
X124370000Y-82637180D02*
X127368320Y-85635500D01*
X124370000Y-81292894D02*
X124370000Y-82637180D01*
X126302894Y-79360000D02*
X124370000Y-81292894D01*
X127010000Y-79360000D02*
X126302894Y-79360000D01*
%TO.N,/i_alt*%
X125110000Y-81900000D02*
X125095000Y-81915000D01*
X127010000Y-81900000D02*
X125110000Y-81900000D01*
%TO.N,Net-(C1-Pad2)*%
X133523541Y-79602500D02*
X133836041Y-79915000D01*
X131267052Y-78789552D02*
X132080000Y-79602500D01*
X133836041Y-79915000D02*
X134647500Y-79915000D01*
X130859552Y-78789552D02*
X131267052Y-78789552D01*
X132080000Y-79602500D02*
X133523541Y-79602500D01*
%TO.N,/5v*%
X133585000Y-81907500D02*
X133585000Y-80938959D01*
X133958959Y-80565000D02*
X134647500Y-80565000D01*
X133585000Y-80938959D02*
X133958959Y-80565000D01*
X132080000Y-83412500D02*
X133585000Y-81907500D01*
%TO.N,Net-(J1-Pad2)*%
X140882500Y-78105000D02*
X140372500Y-78615000D01*
X144145000Y-78105000D02*
X140882500Y-78105000D01*
%TO.N,Net-(J1-Pad3)*%
X140482500Y-79375000D02*
X140372500Y-79265000D01*
X144145000Y-79375000D02*
X140482500Y-79375000D01*
%TO.N,Net-(J1-Pad4)*%
X144145000Y-80645000D02*
X143415000Y-79915000D01*
X143415000Y-79915000D02*
X140372500Y-79915000D01*
%TO.N,Net-(J1-Pad5)*%
X142795000Y-80565000D02*
X140372500Y-80565000D01*
X144145000Y-81915000D02*
X142795000Y-80565000D01*
%TD*%
%TA.AperFunction,Conductor*%
%TO.N,GND*%
G36*
X153433621Y-74528502D02*
G01*
X153480114Y-74582158D01*
X153491500Y-74634500D01*
X153491500Y-87365500D01*
X153471498Y-87433621D01*
X153417842Y-87480114D01*
X153365500Y-87491500D01*
X127550443Y-87491500D01*
X127530536Y-87489918D01*
X127178680Y-87433621D01*
X115614593Y-85583368D01*
X115550488Y-85552854D01*
X115513056Y-85492527D01*
X115508500Y-85458950D01*
X115508500Y-81750000D01*
X117886526Y-81750000D01*
X117906391Y-82002403D01*
X117907545Y-82007210D01*
X117907546Y-82007216D01*
X117935707Y-82124513D01*
X117965495Y-82248591D01*
X117967388Y-82253162D01*
X117967389Y-82253164D01*
X118055128Y-82464984D01*
X118062384Y-82482502D01*
X118194672Y-82698376D01*
X118359102Y-82890898D01*
X118551624Y-83055328D01*
X118767498Y-83187616D01*
X118772068Y-83189509D01*
X118772072Y-83189511D01*
X118995873Y-83282212D01*
X119001409Y-83284505D01*
X119086032Y-83304821D01*
X119242784Y-83342454D01*
X119242790Y-83342455D01*
X119247597Y-83343609D01*
X119347416Y-83351465D01*
X119434345Y-83358307D01*
X119434352Y-83358307D01*
X119436801Y-83358500D01*
X119563199Y-83358500D01*
X119565648Y-83358307D01*
X119565655Y-83358307D01*
X119652584Y-83351465D01*
X119752403Y-83343609D01*
X119757210Y-83342455D01*
X119757216Y-83342454D01*
X119913968Y-83304821D01*
X119998591Y-83284505D01*
X120004127Y-83282212D01*
X120227928Y-83189511D01*
X120227932Y-83189509D01*
X120232502Y-83187616D01*
X120448376Y-83055328D01*
X120640898Y-82890898D01*
X120805328Y-82698376D01*
X120937616Y-82482502D01*
X120944873Y-82464984D01*
X121032611Y-82253164D01*
X121032612Y-82253162D01*
X121034505Y-82248591D01*
X121064293Y-82124513D01*
X121092454Y-82007216D01*
X121092455Y-82007210D01*
X121093609Y-82002403D01*
X121113474Y-81750000D01*
X121093609Y-81497597D01*
X121092056Y-81491126D01*
X121041844Y-81281979D01*
X121039649Y-81272837D01*
X123731780Y-81272837D01*
X123732526Y-81280729D01*
X123735941Y-81316855D01*
X123736500Y-81328713D01*
X123736500Y-82558413D01*
X123735973Y-82569596D01*
X123734298Y-82577089D01*
X123734547Y-82585015D01*
X123734547Y-82585016D01*
X123736438Y-82645166D01*
X123736500Y-82649125D01*
X123736500Y-82677036D01*
X123736997Y-82680970D01*
X123736997Y-82680971D01*
X123737005Y-82681036D01*
X123737938Y-82692873D01*
X123739327Y-82737069D01*
X123742252Y-82747136D01*
X123744978Y-82756519D01*
X123748987Y-82775880D01*
X123751526Y-82795977D01*
X123754445Y-82803348D01*
X123754445Y-82803350D01*
X123767804Y-82837092D01*
X123771649Y-82848322D01*
X123783982Y-82890773D01*
X123788015Y-82897592D01*
X123788017Y-82897597D01*
X123794293Y-82908208D01*
X123802988Y-82925956D01*
X123810448Y-82944797D01*
X123815110Y-82951213D01*
X123815110Y-82951214D01*
X123836436Y-82980567D01*
X123842952Y-82990487D01*
X123865458Y-83028542D01*
X123879779Y-83042863D01*
X123892619Y-83057896D01*
X123904528Y-83074287D01*
X123938605Y-83102478D01*
X123947384Y-83110468D01*
X126864668Y-86027753D01*
X126872208Y-86036039D01*
X126876320Y-86042518D01*
X126882097Y-86047943D01*
X126925971Y-86089143D01*
X126928813Y-86091898D01*
X126948550Y-86111635D01*
X126951747Y-86114115D01*
X126960767Y-86121818D01*
X126992999Y-86152086D01*
X126999945Y-86155905D01*
X126999948Y-86155907D01*
X127010754Y-86161848D01*
X127027273Y-86172699D01*
X127043279Y-86185114D01*
X127050548Y-86188259D01*
X127050552Y-86188262D01*
X127083857Y-86202674D01*
X127094507Y-86207891D01*
X127133260Y-86229195D01*
X127140935Y-86231166D01*
X127140936Y-86231166D01*
X127152882Y-86234233D01*
X127171587Y-86240637D01*
X127190175Y-86248681D01*
X127197998Y-86249920D01*
X127198008Y-86249923D01*
X127233844Y-86255599D01*
X127245464Y-86258005D01*
X127280609Y-86267028D01*
X127288290Y-86269000D01*
X127308544Y-86269000D01*
X127328254Y-86270551D01*
X127348263Y-86273720D01*
X127356155Y-86272974D01*
X127392281Y-86269559D01*
X127404139Y-86269000D01*
X127561800Y-86269000D01*
X127629921Y-86289002D01*
X127649147Y-86305343D01*
X127649420Y-86305040D01*
X127654332Y-86309463D01*
X127658747Y-86314366D01*
X127676987Y-86327618D01*
X127758894Y-86387127D01*
X127813248Y-86426618D01*
X127819276Y-86429302D01*
X127819278Y-86429303D01*
X127981681Y-86501609D01*
X127987712Y-86504294D01*
X128081113Y-86524147D01*
X128168056Y-86542628D01*
X128168061Y-86542628D01*
X128174513Y-86544000D01*
X128365487Y-86544000D01*
X128371939Y-86542628D01*
X128371944Y-86542628D01*
X128458887Y-86524147D01*
X128552288Y-86504294D01*
X128558319Y-86501609D01*
X128720722Y-86429303D01*
X128720724Y-86429302D01*
X128726752Y-86426618D01*
X128881253Y-86314366D01*
X128917851Y-86273720D01*
X129004621Y-86177352D01*
X129004622Y-86177351D01*
X129009040Y-86172444D01*
X129080921Y-86047943D01*
X129101223Y-86012779D01*
X129101224Y-86012778D01*
X129104527Y-86007056D01*
X129163542Y-85825428D01*
X129171167Y-85752886D01*
X129182814Y-85642065D01*
X129183504Y-85635500D01*
X129169228Y-85499674D01*
X129164232Y-85452135D01*
X129164232Y-85452133D01*
X129163542Y-85445572D01*
X129104527Y-85263944D01*
X129091995Y-85242237D01*
X129067314Y-85199490D01*
X129009040Y-85098556D01*
X128973426Y-85059002D01*
X128885675Y-84961545D01*
X128885674Y-84961544D01*
X128881253Y-84956634D01*
X128782157Y-84884636D01*
X128732094Y-84848263D01*
X128732093Y-84848262D01*
X128726752Y-84844382D01*
X128720724Y-84841698D01*
X128720722Y-84841697D01*
X128558319Y-84769391D01*
X128558318Y-84769391D01*
X128552288Y-84766706D01*
X128449596Y-84744878D01*
X128371944Y-84728372D01*
X128371939Y-84728372D01*
X128365487Y-84727000D01*
X128174513Y-84727000D01*
X128168061Y-84728372D01*
X128168056Y-84728372D01*
X128090404Y-84744878D01*
X127987712Y-84766706D01*
X127981682Y-84769391D01*
X127981681Y-84769391D01*
X127819278Y-84841697D01*
X127819276Y-84841698D01*
X127813248Y-84844382D01*
X127807907Y-84848262D01*
X127807906Y-84848263D01*
X127703302Y-84924263D01*
X127636435Y-84948121D01*
X127567283Y-84932041D01*
X127540146Y-84911422D01*
X127018228Y-84389504D01*
X126984202Y-84327192D01*
X126989267Y-84256377D01*
X127031814Y-84199541D01*
X127097656Y-84174780D01*
X127179830Y-84168457D01*
X127179834Y-84168456D01*
X127185972Y-84167984D01*
X127376463Y-84114798D01*
X127381959Y-84112022D01*
X127381961Y-84112021D01*
X127395716Y-84105073D01*
X127465538Y-84092214D01*
X127517368Y-84112514D01*
X127518240Y-84110921D01*
X127526109Y-84115229D01*
X127533295Y-84120615D01*
X127669684Y-84171745D01*
X127731866Y-84178500D01*
X128828134Y-84178500D01*
X128890316Y-84171745D01*
X129026705Y-84120615D01*
X129143261Y-84033261D01*
X129230615Y-83916705D01*
X129281745Y-83780316D01*
X129288500Y-83718134D01*
X129288500Y-82621866D01*
X129281745Y-82559684D01*
X129230615Y-82423295D01*
X129225229Y-82416109D01*
X129220921Y-82408240D01*
X129222942Y-82407133D01*
X129202506Y-82352443D01*
X129208621Y-82303606D01*
X129246412Y-82190000D01*
X129268197Y-82124513D01*
X129292985Y-81928295D01*
X129293282Y-81906995D01*
X129293331Y-81903523D01*
X129293331Y-81903520D01*
X129293380Y-81900000D01*
X129274080Y-81703167D01*
X129270428Y-81691069D01*
X129239909Y-81589989D01*
X129216916Y-81513831D01*
X129161531Y-81409666D01*
X129147212Y-81340128D01*
X129172760Y-81273888D01*
X129230065Y-81231975D01*
X129300932Y-81227698D01*
X129319167Y-81233361D01*
X129322992Y-81234875D01*
X129329940Y-81238695D01*
X129337622Y-81240667D01*
X129337621Y-81240667D01*
X129349558Y-81243732D01*
X129368266Y-81250137D01*
X129386855Y-81258181D01*
X129394680Y-81259420D01*
X129394682Y-81259421D01*
X129430519Y-81265097D01*
X129442140Y-81267504D01*
X129477289Y-81276528D01*
X129484970Y-81278500D01*
X129505231Y-81278500D01*
X129524940Y-81280051D01*
X129544943Y-81283219D01*
X129552835Y-81282473D01*
X129558062Y-81281979D01*
X129588954Y-81279059D01*
X129600811Y-81278500D01*
X130971000Y-81278500D01*
X131039121Y-81298502D01*
X131085614Y-81352158D01*
X131097000Y-81404500D01*
X131097000Y-81415385D01*
X131101475Y-81430624D01*
X131102865Y-81431829D01*
X131110548Y-81433500D01*
X132208000Y-81433500D01*
X132276121Y-81453502D01*
X132322614Y-81507158D01*
X132334000Y-81559500D01*
X132334000Y-81815500D01*
X132313998Y-81883621D01*
X132260342Y-81930114D01*
X132208000Y-81941500D01*
X131115115Y-81941500D01*
X131099876Y-81945975D01*
X131098671Y-81947365D01*
X131097000Y-81955048D01*
X131097000Y-82033766D01*
X131097337Y-82040282D01*
X131107075Y-82134132D01*
X131109968Y-82147528D01*
X131160488Y-82298953D01*
X131166653Y-82312115D01*
X131250426Y-82447492D01*
X131259464Y-82458894D01*
X131261139Y-82460567D01*
X131261919Y-82461993D01*
X131264007Y-82464627D01*
X131263556Y-82464984D01*
X131295219Y-82522849D01*
X131290216Y-82593669D01*
X131261299Y-82638754D01*
X131258476Y-82641583D01*
X131253071Y-82646997D01*
X131249231Y-82653227D01*
X131249230Y-82653228D01*
X131175438Y-82772941D01*
X131161791Y-82795080D01*
X131107026Y-82960191D01*
X131096500Y-83062928D01*
X131096500Y-83132298D01*
X131076498Y-83200419D01*
X131022842Y-83246912D01*
X130996697Y-83255545D01*
X130967712Y-83261706D01*
X130961682Y-83264391D01*
X130961681Y-83264391D01*
X130799278Y-83336697D01*
X130799276Y-83336698D01*
X130793248Y-83339382D01*
X130787907Y-83343262D01*
X130787906Y-83343263D01*
X130742458Y-83376283D01*
X130638747Y-83451634D01*
X130510960Y-83593556D01*
X130462311Y-83677818D01*
X130427831Y-83737540D01*
X130415473Y-83758944D01*
X130356458Y-83940572D01*
X130355768Y-83947133D01*
X130355768Y-83947135D01*
X130342874Y-84069815D01*
X130336496Y-84130500D01*
X130337186Y-84137065D01*
X130342182Y-84184595D01*
X130356458Y-84320428D01*
X130415473Y-84502056D01*
X130418776Y-84507778D01*
X130418777Y-84507779D01*
X130441983Y-84547973D01*
X130510960Y-84667444D01*
X130515378Y-84672351D01*
X130515379Y-84672352D01*
X130623537Y-84792474D01*
X130638747Y-84809366D01*
X130793248Y-84921618D01*
X130799276Y-84924302D01*
X130799278Y-84924303D01*
X130958633Y-84995252D01*
X130967712Y-84999294D01*
X131061112Y-85019147D01*
X131148056Y-85037628D01*
X131148061Y-85037628D01*
X131154513Y-85039000D01*
X131345487Y-85039000D01*
X131351939Y-85037628D01*
X131351944Y-85037628D01*
X131438888Y-85019147D01*
X131532288Y-84999294D01*
X131541367Y-84995252D01*
X131700722Y-84924303D01*
X131700724Y-84924302D01*
X131706752Y-84921618D01*
X131861253Y-84809366D01*
X131876463Y-84792474D01*
X131984621Y-84672352D01*
X131984622Y-84672351D01*
X131989040Y-84667444D01*
X132037208Y-84584015D01*
X132088589Y-84535023D01*
X132158303Y-84521587D01*
X132224214Y-84547973D01*
X132255444Y-84584015D01*
X132303612Y-84667444D01*
X132308030Y-84672351D01*
X132308031Y-84672352D01*
X132416189Y-84792474D01*
X132431399Y-84809366D01*
X132585900Y-84921618D01*
X132591928Y-84924302D01*
X132591930Y-84924303D01*
X132751285Y-84995252D01*
X132760364Y-84999294D01*
X132853764Y-85019147D01*
X132940708Y-85037628D01*
X132940713Y-85037628D01*
X132947165Y-85039000D01*
X133003058Y-85039000D01*
X133071179Y-85059002D01*
X133092153Y-85075905D01*
X134768495Y-86752247D01*
X134776039Y-86760537D01*
X134780152Y-86767018D01*
X134785929Y-86772443D01*
X134829819Y-86813658D01*
X134832661Y-86816413D01*
X134852382Y-86836134D01*
X134855577Y-86838612D01*
X134864599Y-86846318D01*
X134896831Y-86876586D01*
X134903780Y-86880406D01*
X134914584Y-86886346D01*
X134931108Y-86897199D01*
X134947111Y-86909613D01*
X134987695Y-86927176D01*
X134998325Y-86932383D01*
X135037092Y-86953695D01*
X135044769Y-86955666D01*
X135044774Y-86955668D01*
X135056710Y-86958732D01*
X135075418Y-86965137D01*
X135094007Y-86973181D01*
X135101835Y-86974421D01*
X135101842Y-86974423D01*
X135137676Y-86980099D01*
X135149296Y-86982505D01*
X135181111Y-86990673D01*
X135192122Y-86993500D01*
X135212376Y-86993500D01*
X135232086Y-86995051D01*
X135252095Y-86998220D01*
X135259987Y-86997474D01*
X135278732Y-86995702D01*
X135296114Y-86994059D01*
X135307971Y-86993500D01*
X138351233Y-86993500D01*
X138362416Y-86994027D01*
X138369909Y-86995702D01*
X138377835Y-86995453D01*
X138377836Y-86995453D01*
X138437986Y-86993562D01*
X138441945Y-86993500D01*
X138469856Y-86993500D01*
X138473791Y-86993003D01*
X138473856Y-86992995D01*
X138485693Y-86992062D01*
X138517951Y-86991048D01*
X138521970Y-86990922D01*
X138529889Y-86990673D01*
X138549343Y-86985021D01*
X138568700Y-86981013D01*
X138580930Y-86979468D01*
X138580931Y-86979468D01*
X138588797Y-86978474D01*
X138596168Y-86975555D01*
X138596170Y-86975555D01*
X138629912Y-86962196D01*
X138641142Y-86958351D01*
X138675983Y-86948229D01*
X138675984Y-86948229D01*
X138683593Y-86946018D01*
X138690412Y-86941985D01*
X138690417Y-86941983D01*
X138701028Y-86935707D01*
X138718776Y-86927012D01*
X138737617Y-86919552D01*
X138757987Y-86904753D01*
X138773387Y-86893564D01*
X138783307Y-86887048D01*
X138814535Y-86868580D01*
X138814538Y-86868578D01*
X138821362Y-86864542D01*
X138835683Y-86850221D01*
X138850717Y-86837380D01*
X138852432Y-86836134D01*
X138867107Y-86825472D01*
X138895298Y-86791395D01*
X138903288Y-86782616D01*
X139457247Y-86228657D01*
X139465537Y-86221113D01*
X139472018Y-86217000D01*
X139518659Y-86167332D01*
X139521413Y-86164491D01*
X139541135Y-86144769D01*
X139543612Y-86141576D01*
X139551317Y-86132555D01*
X139581586Y-86100321D01*
X139585407Y-86093371D01*
X139591346Y-86082568D01*
X139602202Y-86066041D01*
X139609757Y-86056302D01*
X139609758Y-86056300D01*
X139614614Y-86050040D01*
X139632174Y-86009460D01*
X139637391Y-85998812D01*
X139654875Y-85967009D01*
X139654876Y-85967007D01*
X139658695Y-85960060D01*
X139663733Y-85940437D01*
X139670137Y-85921734D01*
X139675033Y-85910420D01*
X139675033Y-85910419D01*
X139678181Y-85903145D01*
X139679420Y-85895322D01*
X139679423Y-85895312D01*
X139685099Y-85859476D01*
X139687505Y-85847856D01*
X139696528Y-85812711D01*
X139696528Y-85812710D01*
X139698500Y-85805030D01*
X139698500Y-85784776D01*
X139700051Y-85765065D01*
X139701980Y-85752886D01*
X139703220Y-85745057D01*
X139699059Y-85701038D01*
X139698500Y-85689181D01*
X139698500Y-85483232D01*
X139718502Y-85415111D01*
X139723674Y-85407667D01*
X139760229Y-85358892D01*
X139760230Y-85358890D01*
X139765615Y-85351705D01*
X139816745Y-85215316D01*
X139823500Y-85153134D01*
X139823500Y-84556866D01*
X139819344Y-84518606D01*
X139819344Y-84491393D01*
X139823131Y-84456533D01*
X139823131Y-84456529D01*
X139823500Y-84453134D01*
X139823500Y-83856866D01*
X139823422Y-83856150D01*
X139839591Y-83787548D01*
X139875058Y-83747898D01*
X139895914Y-83732745D01*
X139901253Y-83728866D01*
X139907179Y-83722285D01*
X139919150Y-83708990D01*
X139981450Y-83671261D01*
X139988438Y-83669467D01*
X139996297Y-83668474D01*
X140003661Y-83665558D01*
X140003666Y-83665557D01*
X140037412Y-83652196D01*
X140048642Y-83648351D01*
X140083483Y-83638229D01*
X140083484Y-83638229D01*
X140091093Y-83636018D01*
X140097912Y-83631985D01*
X140097917Y-83631983D01*
X140108528Y-83625707D01*
X140126276Y-83617012D01*
X140145117Y-83609552D01*
X140155921Y-83601703D01*
X140180887Y-83583564D01*
X140190807Y-83577048D01*
X140222035Y-83558580D01*
X140222038Y-83558578D01*
X140228862Y-83554542D01*
X140243183Y-83540221D01*
X140258217Y-83527380D01*
X140268194Y-83520131D01*
X140274607Y-83515472D01*
X140279659Y-83509366D01*
X140285441Y-83503936D01*
X140286826Y-83505411D01*
X140336823Y-83471633D01*
X140407801Y-83470003D01*
X140464183Y-83502587D01*
X140809595Y-83847999D01*
X140843621Y-83910311D01*
X140846500Y-83937094D01*
X140846500Y-84388134D01*
X140846869Y-84391529D01*
X140846869Y-84391533D01*
X140850656Y-84426393D01*
X140850656Y-84453606D01*
X140846500Y-84491866D01*
X140846500Y-85088134D01*
X140853255Y-85150316D01*
X140904385Y-85286705D01*
X140991739Y-85403261D01*
X141108295Y-85490615D01*
X141244684Y-85541745D01*
X141306866Y-85548500D01*
X141903134Y-85548500D01*
X141965316Y-85541745D01*
X142101705Y-85490615D01*
X142108890Y-85485230D01*
X142108892Y-85485229D01*
X142157667Y-85448674D01*
X142224174Y-85423826D01*
X142233232Y-85423500D01*
X143731233Y-85423500D01*
X143742416Y-85424027D01*
X143749909Y-85425702D01*
X143757835Y-85425453D01*
X143757836Y-85425453D01*
X143817986Y-85423562D01*
X143821945Y-85423500D01*
X143849856Y-85423500D01*
X143853791Y-85423003D01*
X143853856Y-85422995D01*
X143865693Y-85422062D01*
X143897951Y-85421048D01*
X143901970Y-85420922D01*
X143909889Y-85420673D01*
X143929343Y-85415021D01*
X143948700Y-85411013D01*
X143960930Y-85409468D01*
X143960931Y-85409468D01*
X143968797Y-85408474D01*
X143976168Y-85405555D01*
X143976170Y-85405555D01*
X144009912Y-85392196D01*
X144021142Y-85388351D01*
X144055979Y-85378230D01*
X144063593Y-85376018D01*
X144067867Y-85373491D01*
X144116112Y-85363500D01*
X144240487Y-85363500D01*
X144246939Y-85362128D01*
X144246944Y-85362128D01*
X144335534Y-85343297D01*
X144427288Y-85323794D01*
X144510592Y-85286705D01*
X144595722Y-85248803D01*
X144595724Y-85248802D01*
X144601752Y-85246118D01*
X144756253Y-85133866D01*
X144788046Y-85098556D01*
X144879621Y-84996852D01*
X144879622Y-84996851D01*
X144884040Y-84991944D01*
X144958972Y-84862158D01*
X144976223Y-84832279D01*
X144976224Y-84832278D01*
X144979527Y-84826556D01*
X145004402Y-84750000D01*
X147886526Y-84750000D01*
X147906391Y-85002403D01*
X147907545Y-85007210D01*
X147907546Y-85007216D01*
X147928297Y-85093648D01*
X147965495Y-85248591D01*
X147967388Y-85253162D01*
X147967389Y-85253164D01*
X148054139Y-85462596D01*
X148062384Y-85482502D01*
X148194672Y-85698376D01*
X148359102Y-85890898D01*
X148551624Y-86055328D01*
X148767498Y-86187616D01*
X148772068Y-86189509D01*
X148772072Y-86189511D01*
X148982764Y-86276782D01*
X149001409Y-86284505D01*
X149020141Y-86289002D01*
X149242784Y-86342454D01*
X149242790Y-86342455D01*
X149247597Y-86343609D01*
X149347416Y-86351465D01*
X149434345Y-86358307D01*
X149434352Y-86358307D01*
X149436801Y-86358500D01*
X149563199Y-86358500D01*
X149565648Y-86358307D01*
X149565655Y-86358307D01*
X149652584Y-86351465D01*
X149752403Y-86343609D01*
X149757210Y-86342455D01*
X149757216Y-86342454D01*
X149979859Y-86289002D01*
X149998591Y-86284505D01*
X150017236Y-86276782D01*
X150227928Y-86189511D01*
X150227932Y-86189509D01*
X150232502Y-86187616D01*
X150448376Y-86055328D01*
X150640898Y-85890898D01*
X150805328Y-85698376D01*
X150937616Y-85482502D01*
X150945862Y-85462596D01*
X151032611Y-85253164D01*
X151032612Y-85253162D01*
X151034505Y-85248591D01*
X151071703Y-85093648D01*
X151092454Y-85007216D01*
X151092455Y-85007210D01*
X151093609Y-85002403D01*
X151113474Y-84750000D01*
X151093609Y-84497597D01*
X151092234Y-84491866D01*
X151036278Y-84258794D01*
X151034505Y-84251409D01*
X151032611Y-84246836D01*
X150939511Y-84022072D01*
X150939509Y-84022068D01*
X150937616Y-84017498D01*
X150805328Y-83801624D01*
X150640898Y-83609102D01*
X150448376Y-83444672D01*
X150232502Y-83312384D01*
X150227932Y-83310491D01*
X150227928Y-83310489D01*
X150003164Y-83217389D01*
X150003162Y-83217388D01*
X149998591Y-83215495D01*
X149882466Y-83187616D01*
X149757216Y-83157546D01*
X149757210Y-83157545D01*
X149752403Y-83156391D01*
X149652584Y-83148535D01*
X149565655Y-83141693D01*
X149565648Y-83141693D01*
X149563199Y-83141500D01*
X149436801Y-83141500D01*
X149434352Y-83141693D01*
X149434345Y-83141693D01*
X149347416Y-83148535D01*
X149247597Y-83156391D01*
X149242790Y-83157545D01*
X149242784Y-83157546D01*
X149117534Y-83187616D01*
X149001409Y-83215495D01*
X148996838Y-83217388D01*
X148996836Y-83217389D01*
X148772072Y-83310489D01*
X148772068Y-83310491D01*
X148767498Y-83312384D01*
X148551624Y-83444672D01*
X148359102Y-83609102D01*
X148194672Y-83801624D01*
X148062384Y-84017498D01*
X148060491Y-84022068D01*
X148060489Y-84022072D01*
X147967389Y-84246836D01*
X147965495Y-84251409D01*
X147963722Y-84258794D01*
X147907767Y-84491866D01*
X147906391Y-84497597D01*
X147886526Y-84750000D01*
X145004402Y-84750000D01*
X145038542Y-84644928D01*
X145058504Y-84455000D01*
X145038542Y-84265072D01*
X144979527Y-84083444D01*
X144884040Y-83918056D01*
X144877067Y-83910311D01*
X144760675Y-83781045D01*
X144760674Y-83781044D01*
X144756253Y-83776134D01*
X144613278Y-83672256D01*
X144607094Y-83667763D01*
X144607093Y-83667762D01*
X144601752Y-83663882D01*
X144595724Y-83661198D01*
X144595722Y-83661197D01*
X144433319Y-83588891D01*
X144433318Y-83588891D01*
X144427288Y-83586206D01*
X144333888Y-83566353D01*
X144246944Y-83547872D01*
X144246939Y-83547872D01*
X144240487Y-83546500D01*
X144049513Y-83546500D01*
X144043061Y-83547872D01*
X144043056Y-83547872D01*
X143956112Y-83566353D01*
X143862712Y-83586206D01*
X143856682Y-83588891D01*
X143856681Y-83588891D01*
X143694278Y-83661197D01*
X143694276Y-83661198D01*
X143688248Y-83663882D01*
X143682907Y-83667762D01*
X143682906Y-83667763D01*
X143676722Y-83672256D01*
X143533747Y-83776134D01*
X143529326Y-83781044D01*
X143529325Y-83781045D01*
X143412934Y-83910311D01*
X143405960Y-83918056D01*
X143389171Y-83947135D01*
X143318342Y-84069815D01*
X143310473Y-84083444D01*
X143310430Y-84083577D01*
X143266006Y-84135843D01*
X143196877Y-84156500D01*
X142489500Y-84156500D01*
X142421379Y-84136498D01*
X142374886Y-84082842D01*
X142363500Y-84030500D01*
X142363500Y-83791866D01*
X142356745Y-83729684D01*
X142305615Y-83593295D01*
X142218261Y-83476739D01*
X142209273Y-83470003D01*
X142174339Y-83443821D01*
X142147970Y-83417058D01*
X142138571Y-83404122D01*
X142132051Y-83394198D01*
X142113576Y-83362958D01*
X142109542Y-83356137D01*
X142095218Y-83341813D01*
X142082376Y-83326778D01*
X142070472Y-83310393D01*
X142036406Y-83282211D01*
X142027627Y-83274222D01*
X141637425Y-82884020D01*
X141603399Y-82821708D01*
X141604532Y-82774073D01*
X141602838Y-82773850D01*
X141617962Y-82658972D01*
X141617962Y-82658971D01*
X141618500Y-82654885D01*
X141618499Y-82375116D01*
X141615515Y-82352443D01*
X141603916Y-82264337D01*
X141603916Y-82264335D01*
X141602838Y-82256150D01*
X141595411Y-82238219D01*
X141587821Y-82167630D01*
X141595411Y-82141780D01*
X141599678Y-82131480D01*
X141599679Y-82131477D01*
X141602838Y-82123850D01*
X141618500Y-82004885D01*
X141618499Y-81725116D01*
X141617809Y-81719870D01*
X141603916Y-81614337D01*
X141603916Y-81614335D01*
X141602838Y-81606150D01*
X141595140Y-81587565D01*
X141587550Y-81516977D01*
X141595140Y-81491126D01*
X141599190Y-81481350D01*
X141603428Y-81465532D01*
X141617462Y-81358934D01*
X141618000Y-81350724D01*
X141618000Y-81324500D01*
X141638002Y-81256379D01*
X141691658Y-81209886D01*
X141744000Y-81198500D01*
X142480406Y-81198500D01*
X142548527Y-81218502D01*
X142569501Y-81235405D01*
X143099251Y-81765155D01*
X143133277Y-81827467D01*
X143135371Y-81868294D01*
X143131719Y-81900851D01*
X143134176Y-81930114D01*
X143142752Y-82032238D01*
X143148268Y-82097934D01*
X143157887Y-82131480D01*
X143193636Y-82256150D01*
X143202783Y-82288050D01*
X143205602Y-82293535D01*
X143284726Y-82447492D01*
X143293187Y-82463956D01*
X143416035Y-82618953D01*
X143420728Y-82622947D01*
X143420729Y-82622948D01*
X143504406Y-82694162D01*
X143566650Y-82747136D01*
X143739294Y-82843624D01*
X143927392Y-82904740D01*
X144123777Y-82928158D01*
X144129912Y-82927686D01*
X144129914Y-82927686D01*
X144314830Y-82913457D01*
X144314834Y-82913456D01*
X144320972Y-82912984D01*
X144511463Y-82859798D01*
X144516967Y-82857018D01*
X144516969Y-82857017D01*
X144682495Y-82773404D01*
X144682497Y-82773403D01*
X144687996Y-82770625D01*
X144819146Y-82668160D01*
X144838991Y-82652655D01*
X144843847Y-82648861D01*
X144973078Y-82499145D01*
X145070769Y-82327179D01*
X145133197Y-82139513D01*
X145157985Y-81943295D01*
X145158380Y-81915000D01*
X145139080Y-81718167D01*
X145127986Y-81681420D01*
X145111715Y-81627531D01*
X145081916Y-81528831D01*
X144989066Y-81354204D01*
X144985167Y-81349424D01*
X144984715Y-81348743D01*
X144963676Y-81280935D01*
X144980105Y-81216775D01*
X144981114Y-81215000D01*
X145013257Y-81158418D01*
X145067723Y-81062542D01*
X145067725Y-81062537D01*
X145070769Y-81057179D01*
X145133197Y-80869513D01*
X145157985Y-80673295D01*
X145158380Y-80645000D01*
X145139080Y-80448167D01*
X145132121Y-80425116D01*
X145098865Y-80314970D01*
X145081916Y-80258831D01*
X144989066Y-80084204D01*
X144985167Y-80079424D01*
X144984715Y-80078743D01*
X144963676Y-80010935D01*
X144980105Y-79946775D01*
X145067723Y-79792542D01*
X145067725Y-79792537D01*
X145070769Y-79787179D01*
X145133197Y-79599513D01*
X145157985Y-79403295D01*
X145158205Y-79387560D01*
X145158331Y-79378523D01*
X145158331Y-79378520D01*
X145158380Y-79375000D01*
X145139080Y-79178167D01*
X145135658Y-79166831D01*
X145099604Y-79047417D01*
X145081916Y-78988831D01*
X144989066Y-78814204D01*
X144985167Y-78809424D01*
X144984715Y-78808743D01*
X144963676Y-78740935D01*
X144980105Y-78676775D01*
X145067723Y-78522542D01*
X145067725Y-78522537D01*
X145070769Y-78517179D01*
X145133197Y-78329513D01*
X145143242Y-78250000D01*
X147886526Y-78250000D01*
X147906391Y-78502403D01*
X147907545Y-78507210D01*
X147907546Y-78507216D01*
X147944840Y-78662558D01*
X147965495Y-78748591D01*
X147967388Y-78753162D01*
X147967389Y-78753164D01*
X148058414Y-78972917D01*
X148062384Y-78982502D01*
X148194672Y-79198376D01*
X148359102Y-79390898D01*
X148551624Y-79555328D01*
X148767498Y-79687616D01*
X148772068Y-79689509D01*
X148772072Y-79689511D01*
X148993734Y-79781326D01*
X149001409Y-79784505D01*
X149034886Y-79792542D01*
X149242784Y-79842454D01*
X149242790Y-79842455D01*
X149247597Y-79843609D01*
X149347416Y-79851465D01*
X149434345Y-79858307D01*
X149434352Y-79858307D01*
X149436801Y-79858500D01*
X149563199Y-79858500D01*
X149565648Y-79858307D01*
X149565655Y-79858307D01*
X149652584Y-79851465D01*
X149752403Y-79843609D01*
X149757210Y-79842455D01*
X149757216Y-79842454D01*
X149965114Y-79792542D01*
X149998591Y-79784505D01*
X150006266Y-79781326D01*
X150227928Y-79689511D01*
X150227932Y-79689509D01*
X150232502Y-79687616D01*
X150448376Y-79555328D01*
X150640898Y-79390898D01*
X150805328Y-79198376D01*
X150937616Y-78982502D01*
X150941587Y-78972917D01*
X151032611Y-78753164D01*
X151032612Y-78753162D01*
X151034505Y-78748591D01*
X151055160Y-78662558D01*
X151092454Y-78507216D01*
X151092455Y-78507210D01*
X151093609Y-78502403D01*
X151113474Y-78250000D01*
X151093609Y-77997597D01*
X151091427Y-77988505D01*
X151035660Y-77756221D01*
X151034505Y-77751409D01*
X151032611Y-77746836D01*
X150939511Y-77522072D01*
X150939509Y-77522068D01*
X150937616Y-77517498D01*
X150805328Y-77301624D01*
X150640898Y-77109102D01*
X150448376Y-76944672D01*
X150232502Y-76812384D01*
X150227932Y-76810491D01*
X150227928Y-76810489D01*
X150003164Y-76717389D01*
X150003162Y-76717388D01*
X149998591Y-76715495D01*
X149913968Y-76695179D01*
X149757216Y-76657546D01*
X149757210Y-76657545D01*
X149752403Y-76656391D01*
X149652584Y-76648535D01*
X149565655Y-76641693D01*
X149565648Y-76641693D01*
X149563199Y-76641500D01*
X149436801Y-76641500D01*
X149434352Y-76641693D01*
X149434345Y-76641693D01*
X149347416Y-76648535D01*
X149247597Y-76656391D01*
X149242790Y-76657545D01*
X149242784Y-76657546D01*
X149086032Y-76695179D01*
X149001409Y-76715495D01*
X148996838Y-76717388D01*
X148996836Y-76717389D01*
X148772072Y-76810489D01*
X148772068Y-76810491D01*
X148767498Y-76812384D01*
X148551624Y-76944672D01*
X148359102Y-77109102D01*
X148194672Y-77301624D01*
X148062384Y-77517498D01*
X148060491Y-77522068D01*
X148060489Y-77522072D01*
X147967389Y-77746836D01*
X147965495Y-77751409D01*
X147964340Y-77756221D01*
X147908574Y-77988505D01*
X147906391Y-77997597D01*
X147886526Y-78250000D01*
X145143242Y-78250000D01*
X145157985Y-78133295D01*
X145158380Y-78105000D01*
X145139080Y-77908167D01*
X145131192Y-77882039D01*
X145083699Y-77724736D01*
X145083698Y-77724734D01*
X145081916Y-77718831D01*
X145079022Y-77713387D01*
X145076973Y-77708417D01*
X145069509Y-77637814D01*
X145087145Y-77597429D01*
X145085479Y-77596517D01*
X145098323Y-77573058D01*
X145143478Y-77452606D01*
X145147105Y-77437351D01*
X145152631Y-77386486D01*
X145153000Y-77379672D01*
X145153000Y-77107115D01*
X145148525Y-77091876D01*
X145147135Y-77090671D01*
X145139452Y-77089000D01*
X143155116Y-77089000D01*
X143139877Y-77093475D01*
X143138672Y-77094865D01*
X143137001Y-77102548D01*
X143137001Y-77345500D01*
X143116999Y-77413621D01*
X143063343Y-77460114D01*
X143011001Y-77471500D01*
X140961267Y-77471500D01*
X140950084Y-77470973D01*
X140942591Y-77469298D01*
X140934665Y-77469547D01*
X140934664Y-77469547D01*
X140874501Y-77471438D01*
X140870543Y-77471500D01*
X140842644Y-77471500D01*
X140838654Y-77472004D01*
X140826820Y-77472936D01*
X140782611Y-77474326D01*
X140774997Y-77476538D01*
X140774992Y-77476539D01*
X140763159Y-77479977D01*
X140743796Y-77483988D01*
X140723703Y-77486526D01*
X140716336Y-77489443D01*
X140716331Y-77489444D01*
X140682592Y-77502802D01*
X140671365Y-77506646D01*
X140628907Y-77518982D01*
X140622081Y-77523019D01*
X140611472Y-77529293D01*
X140593724Y-77537988D01*
X140574883Y-77545448D01*
X140568467Y-77550110D01*
X140568466Y-77550110D01*
X140539113Y-77571436D01*
X140529193Y-77577952D01*
X140497965Y-77596420D01*
X140497962Y-77596422D01*
X140491138Y-77600458D01*
X140476817Y-77614779D01*
X140461784Y-77627619D01*
X140445393Y-77639528D01*
X140440340Y-77645636D01*
X140417208Y-77673598D01*
X140409218Y-77682378D01*
X140222000Y-77869596D01*
X140159688Y-77903622D01*
X140132905Y-77906501D01*
X139695116Y-77906501D01*
X139691031Y-77907039D01*
X139691027Y-77907039D01*
X139584337Y-77921084D01*
X139584335Y-77921084D01*
X139576150Y-77922162D01*
X139511642Y-77948882D01*
X139435752Y-77980316D01*
X139435750Y-77980317D01*
X139428124Y-77983476D01*
X139421574Y-77988502D01*
X139331210Y-78057842D01*
X139301013Y-78081013D01*
X139295987Y-78087563D01*
X139295984Y-78087566D01*
X139263599Y-78129771D01*
X139203476Y-78208125D01*
X139142162Y-78356150D01*
X139126500Y-78475115D01*
X139126501Y-78754884D01*
X139127039Y-78758969D01*
X139127039Y-78758973D01*
X139135920Y-78826436D01*
X139142162Y-78873850D01*
X139145322Y-78881478D01*
X139149589Y-78891780D01*
X139157179Y-78962370D01*
X139149590Y-78988218D01*
X139142162Y-79006150D01*
X139126500Y-79125115D01*
X139126501Y-79404884D01*
X139127039Y-79408969D01*
X139127039Y-79408973D01*
X139132237Y-79448457D01*
X139142162Y-79523850D01*
X139145322Y-79531478D01*
X139149589Y-79541780D01*
X139157179Y-79612370D01*
X139149589Y-79638220D01*
X139145322Y-79648520D01*
X139145321Y-79648523D01*
X139142162Y-79656150D01*
X139141084Y-79664337D01*
X139141084Y-79664338D01*
X139136646Y-79698052D01*
X139126500Y-79775115D01*
X139126501Y-80054884D01*
X139127039Y-80058969D01*
X139127039Y-80058973D01*
X139141084Y-80165662D01*
X139142162Y-80173850D01*
X139149589Y-80191780D01*
X139157179Y-80262370D01*
X139149589Y-80288220D01*
X139145322Y-80298520D01*
X139145321Y-80298523D01*
X139142162Y-80306150D01*
X139126500Y-80425115D01*
X139126501Y-80704884D01*
X139127039Y-80708969D01*
X139127039Y-80708973D01*
X139140725Y-80812934D01*
X139142162Y-80823850D01*
X139145653Y-80832278D01*
X139149860Y-80842434D01*
X139157450Y-80913023D01*
X139149860Y-80938874D01*
X139145811Y-80948649D01*
X139141572Y-80964469D01*
X139137284Y-80997040D01*
X139139495Y-81011222D01*
X139152652Y-81015000D01*
X139174431Y-81015000D01*
X139242552Y-81035002D01*
X139274391Y-81064294D01*
X139301013Y-81098987D01*
X139315586Y-81110169D01*
X139321932Y-81115039D01*
X139363798Y-81172378D01*
X139368018Y-81243249D01*
X139333253Y-81305152D01*
X139321930Y-81314962D01*
X139307567Y-81325983D01*
X139307563Y-81325987D01*
X139301013Y-81331013D01*
X139274393Y-81365704D01*
X139217057Y-81407571D01*
X139174432Y-81415000D01*
X139153035Y-81415000D01*
X139139264Y-81419044D01*
X139134749Y-81449172D01*
X139104872Y-81513577D01*
X139044919Y-81551605D01*
X139010140Y-81556500D01*
X137958767Y-81556500D01*
X137947584Y-81555973D01*
X137940091Y-81554298D01*
X137932165Y-81554547D01*
X137932164Y-81554547D01*
X137872014Y-81556438D01*
X137868055Y-81556500D01*
X137840144Y-81556500D01*
X137836210Y-81556997D01*
X137836209Y-81556997D01*
X137836144Y-81557005D01*
X137824307Y-81557938D01*
X137792490Y-81558938D01*
X137788029Y-81559078D01*
X137780110Y-81559327D01*
X137762454Y-81564456D01*
X137760658Y-81564978D01*
X137741306Y-81568986D01*
X137734235Y-81569880D01*
X137721203Y-81571526D01*
X137713834Y-81574443D01*
X137713832Y-81574444D01*
X137680097Y-81587800D01*
X137668869Y-81591645D01*
X137626407Y-81603982D01*
X137619584Y-81608017D01*
X137619582Y-81608018D01*
X137608972Y-81614293D01*
X137591224Y-81622988D01*
X137572383Y-81630448D01*
X137565967Y-81635110D01*
X137565966Y-81635110D01*
X137536613Y-81656436D01*
X137526693Y-81662952D01*
X137495465Y-81681420D01*
X137495462Y-81681422D01*
X137488638Y-81685458D01*
X137474314Y-81699782D01*
X137459287Y-81712617D01*
X137442893Y-81724528D01*
X137437839Y-81730637D01*
X137437838Y-81730638D01*
X137414709Y-81758596D01*
X137406720Y-81767375D01*
X137402749Y-81771346D01*
X137394461Y-81778888D01*
X137387982Y-81783000D01*
X137382558Y-81788776D01*
X137341355Y-81832653D01*
X137338600Y-81835495D01*
X137318865Y-81855230D01*
X137316385Y-81858427D01*
X137308682Y-81867447D01*
X137278414Y-81899679D01*
X137274595Y-81906625D01*
X137274593Y-81906628D01*
X137268652Y-81917434D01*
X137257801Y-81933953D01*
X137245386Y-81949959D01*
X137242241Y-81957228D01*
X137242238Y-81957232D01*
X137227826Y-81990537D01*
X137222605Y-82001196D01*
X137219295Y-82007216D01*
X137212882Y-82018881D01*
X137162536Y-82068939D01*
X137093119Y-82083832D01*
X137026670Y-82058830D01*
X137000534Y-82032242D01*
X136990472Y-82018393D01*
X136956406Y-81990211D01*
X136947627Y-81982222D01*
X136931622Y-81966217D01*
X136897596Y-81903905D01*
X136895407Y-81890292D01*
X136892051Y-81858356D01*
X136886762Y-81808034D01*
X136878732Y-81731635D01*
X136878732Y-81731633D01*
X136878042Y-81725072D01*
X136819027Y-81543444D01*
X136723540Y-81378056D01*
X136706965Y-81359647D01*
X136600175Y-81241045D01*
X136600174Y-81241044D01*
X136595753Y-81236134D01*
X136441252Y-81123882D01*
X136435224Y-81121198D01*
X136435222Y-81121197D01*
X136272819Y-81048891D01*
X136272818Y-81048891D01*
X136266788Y-81046206D01*
X136173387Y-81026353D01*
X136086444Y-81007872D01*
X136086439Y-81007872D01*
X136079987Y-81006500D01*
X135990754Y-81006500D01*
X135922633Y-80986498D01*
X135876140Y-80932842D01*
X135866036Y-80862568D01*
X135874347Y-80832278D01*
X135874678Y-80831480D01*
X135874679Y-80831477D01*
X135877838Y-80823850D01*
X135893500Y-80704885D01*
X135893499Y-80425116D01*
X135877838Y-80306150D01*
X135870411Y-80288219D01*
X135862821Y-80217630D01*
X135870411Y-80191780D01*
X135874678Y-80181480D01*
X135874679Y-80181477D01*
X135877838Y-80173850D01*
X135893500Y-80054885D01*
X135893499Y-79775116D01*
X135891298Y-79758391D01*
X135878916Y-79664337D01*
X135878916Y-79664335D01*
X135877838Y-79656150D01*
X135870140Y-79637565D01*
X135862550Y-79566977D01*
X135870140Y-79541126D01*
X135874189Y-79531351D01*
X135878428Y-79515531D01*
X135882716Y-79482960D01*
X135880505Y-79468778D01*
X135867348Y-79465000D01*
X135845569Y-79465000D01*
X135777448Y-79444998D01*
X135745607Y-79415705D01*
X135718987Y-79381013D01*
X135698068Y-79364961D01*
X135656202Y-79307622D01*
X135651982Y-79236751D01*
X135686747Y-79174848D01*
X135698070Y-79165038D01*
X135712433Y-79154017D01*
X135712437Y-79154013D01*
X135718987Y-79148987D01*
X135745608Y-79114295D01*
X135802946Y-79072428D01*
X135845569Y-79065000D01*
X135866965Y-79065000D01*
X135880736Y-79060956D01*
X135882765Y-79047417D01*
X135878428Y-79014467D01*
X135874190Y-78998652D01*
X135870140Y-78988874D01*
X135862550Y-78918285D01*
X135870140Y-78892434D01*
X135874678Y-78881479D01*
X135874678Y-78881478D01*
X135877838Y-78873850D01*
X135885691Y-78814204D01*
X135892962Y-78758972D01*
X135892962Y-78758971D01*
X135893500Y-78754885D01*
X135893499Y-78475116D01*
X135891107Y-78456941D01*
X135878916Y-78364337D01*
X135878916Y-78364335D01*
X135877838Y-78356150D01*
X135832917Y-78247700D01*
X135819684Y-78215752D01*
X135819683Y-78215750D01*
X135816524Y-78208124D01*
X135741756Y-78110686D01*
X135724014Y-78087564D01*
X135724013Y-78087563D01*
X135718987Y-78081013D01*
X135712436Y-78075986D01*
X135712434Y-78075984D01*
X135620577Y-78005500D01*
X135591875Y-77983476D01*
X135461586Y-77929509D01*
X135451479Y-77925322D01*
X135443850Y-77922162D01*
X135384140Y-77914301D01*
X135328972Y-77907038D01*
X135328971Y-77907038D01*
X135324885Y-77906500D01*
X134647583Y-77906500D01*
X133970116Y-77906501D01*
X133966031Y-77907039D01*
X133966027Y-77907039D01*
X133859337Y-77921084D01*
X133859335Y-77921084D01*
X133851150Y-77922162D01*
X133843523Y-77925321D01*
X133835541Y-77927460D01*
X133834924Y-77925156D01*
X133776490Y-77931441D01*
X133747608Y-77922550D01*
X133657484Y-77882424D01*
X133638319Y-77873891D01*
X133638318Y-77873891D01*
X133632288Y-77871206D01*
X133538888Y-77851353D01*
X133451944Y-77832872D01*
X133451939Y-77832872D01*
X133445487Y-77831500D01*
X133254513Y-77831500D01*
X133248061Y-77832872D01*
X133248056Y-77832872D01*
X133215197Y-77839857D01*
X133144406Y-77834455D01*
X133087774Y-77791638D01*
X133063280Y-77725001D01*
X133063000Y-77716610D01*
X133063000Y-77531234D01*
X133062663Y-77524718D01*
X133052925Y-77430868D01*
X133050032Y-77417472D01*
X132999512Y-77266047D01*
X132993347Y-77252885D01*
X132909574Y-77117508D01*
X132900540Y-77106110D01*
X132787871Y-76993637D01*
X132776460Y-76984625D01*
X132640937Y-76901088D01*
X132627759Y-76894944D01*
X132476234Y-76844685D01*
X132462868Y-76841819D01*
X132370230Y-76832328D01*
X132363815Y-76832000D01*
X132352115Y-76832000D01*
X132336876Y-76836475D01*
X132335671Y-76837865D01*
X132334000Y-76845548D01*
X132334000Y-78005500D01*
X132313998Y-78073621D01*
X132260342Y-78120114D01*
X132208000Y-78131500D01*
X131952000Y-78131500D01*
X131883879Y-78111498D01*
X131837386Y-78057842D01*
X131826000Y-78005500D01*
X131826000Y-76850115D01*
X131821525Y-76834876D01*
X131820135Y-76833671D01*
X131812452Y-76832000D01*
X131796234Y-76832000D01*
X131789718Y-76832337D01*
X131695868Y-76842075D01*
X131682472Y-76844968D01*
X131531047Y-76895488D01*
X131517885Y-76901653D01*
X131382508Y-76985426D01*
X131371110Y-76994460D01*
X131258637Y-77107129D01*
X131249625Y-77118540D01*
X131166088Y-77254063D01*
X131159944Y-77267241D01*
X131109685Y-77418766D01*
X131106819Y-77432132D01*
X131097328Y-77524770D01*
X131097000Y-77531185D01*
X131097000Y-77756729D01*
X131076998Y-77824850D01*
X131023342Y-77871343D01*
X130958879Y-77881868D01*
X130955039Y-77881052D01*
X130764065Y-77881052D01*
X130757613Y-77882424D01*
X130757608Y-77882424D01*
X130670665Y-77900905D01*
X130577264Y-77920758D01*
X130571234Y-77923443D01*
X130571233Y-77923443D01*
X130408830Y-77995749D01*
X130408828Y-77995750D01*
X130402800Y-77998434D01*
X130397459Y-78002314D01*
X130397458Y-78002315D01*
X130347395Y-78038688D01*
X130248299Y-78110686D01*
X130243878Y-78115596D01*
X130243877Y-78115597D01*
X130135054Y-78236458D01*
X130120512Y-78252608D01*
X130065136Y-78348522D01*
X130056005Y-78364338D01*
X130025025Y-78417996D01*
X129966010Y-78599624D01*
X129965320Y-78606185D01*
X129965320Y-78606187D01*
X129951216Y-78740378D01*
X129946048Y-78789552D01*
X129946738Y-78796117D01*
X129964845Y-78968392D01*
X129966010Y-78979480D01*
X130025025Y-79161108D01*
X130028328Y-79166830D01*
X130028329Y-79166831D01*
X130044109Y-79194162D01*
X130120512Y-79326496D01*
X130124930Y-79331403D01*
X130124931Y-79331404D01*
X130230326Y-79448457D01*
X130248299Y-79468418D01*
X130402800Y-79580670D01*
X130408828Y-79583354D01*
X130408830Y-79583355D01*
X130571233Y-79655661D01*
X130577264Y-79658346D01*
X130670664Y-79678199D01*
X130757608Y-79696680D01*
X130757613Y-79696680D01*
X130764065Y-79698052D01*
X130955039Y-79698052D01*
X130958463Y-79697324D01*
X131027168Y-79709889D01*
X131079015Y-79758391D01*
X131096500Y-79822427D01*
X131096500Y-79885500D01*
X131076498Y-79953621D01*
X131022842Y-80000114D01*
X130970500Y-80011500D01*
X129879595Y-80011500D01*
X129811474Y-79991498D01*
X129790500Y-79974595D01*
X129326674Y-79510769D01*
X129292648Y-79448457D01*
X129290763Y-79405883D01*
X129292985Y-79388295D01*
X129293380Y-79360000D01*
X129274080Y-79163167D01*
X129271318Y-79154017D01*
X129229146Y-79014338D01*
X129216916Y-78973831D01*
X129124066Y-78799204D01*
X129120167Y-78794424D01*
X129119715Y-78793743D01*
X129098676Y-78725935D01*
X129115105Y-78661775D01*
X129202723Y-78507542D01*
X129202725Y-78507537D01*
X129205769Y-78502179D01*
X129268197Y-78314513D01*
X129292985Y-78118295D01*
X129293380Y-78090000D01*
X129274080Y-77893167D01*
X129270837Y-77882424D01*
X129250162Y-77813947D01*
X129216916Y-77703831D01*
X129124066Y-77529204D01*
X129033995Y-77418766D01*
X129002960Y-77380713D01*
X129002957Y-77380710D01*
X128999065Y-77375938D01*
X128993152Y-77371046D01*
X128851425Y-77253799D01*
X128851421Y-77253797D01*
X128846675Y-77249870D01*
X128672701Y-77155802D01*
X128483768Y-77097318D01*
X128477643Y-77096674D01*
X128477642Y-77096674D01*
X128293204Y-77077289D01*
X128293202Y-77077289D01*
X128287075Y-77076645D01*
X128204576Y-77084153D01*
X128096251Y-77094011D01*
X128096248Y-77094012D01*
X128090112Y-77094570D01*
X128084206Y-77096308D01*
X128084202Y-77096309D01*
X128007954Y-77118750D01*
X127900381Y-77150410D01*
X127894923Y-77153263D01*
X127894919Y-77153265D01*
X127799135Y-77203340D01*
X127725110Y-77242040D01*
X127720310Y-77245900D01*
X127715153Y-77249274D01*
X127713849Y-77247281D01*
X127657977Y-77270354D01*
X127588122Y-77257674D01*
X127574186Y-77249522D01*
X127570980Y-77247360D01*
X127407924Y-77159196D01*
X127396619Y-77154444D01*
X127281308Y-77118750D01*
X127267205Y-77118544D01*
X127264000Y-77125299D01*
X127264000Y-78218000D01*
X127243998Y-78286121D01*
X127190342Y-78332614D01*
X127138000Y-78344000D01*
X126052282Y-78344000D01*
X126038751Y-78347973D01*
X126037601Y-78355975D01*
X126066552Y-78456941D01*
X126071067Y-78468345D01*
X126135042Y-78592827D01*
X126148389Y-78662558D01*
X126121919Y-78728435D01*
X126063755Y-78767626D01*
X126064187Y-78768623D01*
X126058843Y-78770936D01*
X126058128Y-78771417D01*
X126049301Y-78773982D01*
X126042475Y-78778019D01*
X126031866Y-78784293D01*
X126014118Y-78792988D01*
X125995277Y-78800448D01*
X125988861Y-78805110D01*
X125988860Y-78805110D01*
X125959507Y-78826436D01*
X125949587Y-78832952D01*
X125918359Y-78851420D01*
X125918356Y-78851422D01*
X125911532Y-78855458D01*
X125897211Y-78869779D01*
X125882178Y-78882619D01*
X125865787Y-78894528D01*
X125837596Y-78928605D01*
X125829606Y-78937384D01*
X123977747Y-80789242D01*
X123969461Y-80796782D01*
X123962982Y-80800894D01*
X123957557Y-80806671D01*
X123916357Y-80850545D01*
X123913602Y-80853387D01*
X123893865Y-80873124D01*
X123891385Y-80876321D01*
X123883682Y-80885341D01*
X123853414Y-80917573D01*
X123849595Y-80924519D01*
X123849593Y-80924522D01*
X123843652Y-80935328D01*
X123832801Y-80951847D01*
X123820386Y-80967853D01*
X123817241Y-80975122D01*
X123817238Y-80975126D01*
X123802826Y-81008431D01*
X123797609Y-81019081D01*
X123776305Y-81057834D01*
X123774334Y-81065509D01*
X123774334Y-81065510D01*
X123771267Y-81077456D01*
X123764863Y-81096160D01*
X123756819Y-81114749D01*
X123755580Y-81122572D01*
X123755577Y-81122582D01*
X123749901Y-81158418D01*
X123747495Y-81170038D01*
X123740695Y-81196524D01*
X123736500Y-81212864D01*
X123736500Y-81233118D01*
X123734949Y-81252828D01*
X123731780Y-81272837D01*
X121039649Y-81272837D01*
X121034505Y-81251409D01*
X121027876Y-81235405D01*
X120939511Y-81022072D01*
X120939509Y-81022068D01*
X120937616Y-81017498D01*
X120805328Y-80801624D01*
X120640898Y-80609102D01*
X120448376Y-80444672D01*
X120232502Y-80312384D01*
X120227932Y-80310491D01*
X120227928Y-80310489D01*
X120003164Y-80217389D01*
X120003162Y-80217388D01*
X119998591Y-80215495D01*
X119899810Y-80191780D01*
X119757216Y-80157546D01*
X119757210Y-80157545D01*
X119752403Y-80156391D01*
X119652584Y-80148535D01*
X119565655Y-80141693D01*
X119565648Y-80141693D01*
X119563199Y-80141500D01*
X119436801Y-80141500D01*
X119434352Y-80141693D01*
X119434345Y-80141693D01*
X119347416Y-80148535D01*
X119247597Y-80156391D01*
X119242790Y-80157545D01*
X119242784Y-80157546D01*
X119100190Y-80191780D01*
X119001409Y-80215495D01*
X118996838Y-80217388D01*
X118996836Y-80217389D01*
X118772072Y-80310489D01*
X118772068Y-80310491D01*
X118767498Y-80312384D01*
X118551624Y-80444672D01*
X118359102Y-80609102D01*
X118194672Y-80801624D01*
X118062384Y-81017498D01*
X118060491Y-81022068D01*
X118060489Y-81022072D01*
X117972124Y-81235405D01*
X117965495Y-81251409D01*
X117958156Y-81281979D01*
X117907945Y-81491126D01*
X117906391Y-81497597D01*
X117886526Y-81750000D01*
X115508500Y-81750000D01*
X115508500Y-81262817D01*
X115528502Y-81194696D01*
X115545405Y-81173722D01*
X118886296Y-77832831D01*
X126038202Y-77832831D01*
X126044763Y-77836000D01*
X126737885Y-77836000D01*
X126753124Y-77831525D01*
X126754329Y-77830135D01*
X126756000Y-77822452D01*
X126756000Y-77132076D01*
X126752027Y-77118545D01*
X126744232Y-77117425D01*
X126636479Y-77149138D01*
X126625111Y-77153731D01*
X126460846Y-77239607D01*
X126450585Y-77246321D01*
X126306127Y-77362468D01*
X126297368Y-77371046D01*
X126178222Y-77513039D01*
X126171292Y-77523159D01*
X126081998Y-77685585D01*
X126077166Y-77696858D01*
X126038506Y-77818731D01*
X126038202Y-77832831D01*
X118886296Y-77832831D01*
X120156242Y-76562885D01*
X143137000Y-76562885D01*
X143141475Y-76578124D01*
X143142865Y-76579329D01*
X143150548Y-76581000D01*
X143872885Y-76581000D01*
X143888124Y-76576525D01*
X143889329Y-76575135D01*
X143891000Y-76567452D01*
X143891000Y-76562885D01*
X144399000Y-76562885D01*
X144403475Y-76578124D01*
X144404865Y-76579329D01*
X144412548Y-76581000D01*
X145134884Y-76581000D01*
X145150123Y-76576525D01*
X145151328Y-76575135D01*
X145152999Y-76567452D01*
X145152999Y-76290331D01*
X145152629Y-76283510D01*
X145147105Y-76232648D01*
X145143479Y-76217396D01*
X145098324Y-76096946D01*
X145089786Y-76081351D01*
X145013285Y-75979276D01*
X145000724Y-75966715D01*
X144898649Y-75890214D01*
X144883054Y-75881676D01*
X144762606Y-75836522D01*
X144747351Y-75832895D01*
X144696486Y-75827369D01*
X144689672Y-75827000D01*
X144417115Y-75827000D01*
X144401876Y-75831475D01*
X144400671Y-75832865D01*
X144399000Y-75840548D01*
X144399000Y-76562885D01*
X143891000Y-76562885D01*
X143891000Y-75845116D01*
X143886525Y-75829877D01*
X143885135Y-75828672D01*
X143877452Y-75827001D01*
X143600331Y-75827001D01*
X143593510Y-75827371D01*
X143542648Y-75832895D01*
X143527396Y-75836521D01*
X143406946Y-75881676D01*
X143391351Y-75890214D01*
X143289276Y-75966715D01*
X143276715Y-75979276D01*
X143200214Y-76081351D01*
X143191676Y-76096946D01*
X143146522Y-76217394D01*
X143142895Y-76232649D01*
X143137369Y-76283514D01*
X143137000Y-76290328D01*
X143137000Y-76562885D01*
X120156242Y-76562885D01*
X122173722Y-74545405D01*
X122236034Y-74511379D01*
X122262817Y-74508500D01*
X153365500Y-74508500D01*
X153433621Y-74528502D01*
G37*
%TD.AperFunction*%
%TD*%
M02*
