%TF.GenerationSoftware,KiCad,Pcbnew,(6.0.7)*%
%TF.CreationDate,2022-08-20T21:52:45-04:00*%
%TF.ProjectId,THE_ENCODER,5448455f-454e-4434-9f44-45522e6b6963,rev?*%
%TF.SameCoordinates,Original*%
%TF.FileFunction,Legend,Top*%
%TF.FilePolarity,Positive*%
%FSLAX46Y46*%
G04 Gerber Fmt 4.6, Leading zero omitted, Abs format (unit mm)*
G04 Created by KiCad (PCBNEW (6.0.7)) date 2022-08-20 21:52:45*
%MOMM*%
%LPD*%
G01*
G04 APERTURE LIST*
G04 Aperture macros list*
%AMRoundRect*
0 Rectangle with rounded corners*
0 $1 Rounding radius*
0 $2 $3 $4 $5 $6 $7 $8 $9 X,Y pos of 4 corners*
0 Add a 4 corners polygon primitive as box body*
4,1,4,$2,$3,$4,$5,$6,$7,$8,$9,$2,$3,0*
0 Add four circle primitives for the rounded corners*
1,1,$1+$1,$2,$3*
1,1,$1+$1,$4,$5*
1,1,$1+$1,$6,$7*
1,1,$1+$1,$8,$9*
0 Add four rect primitives between the rounded corners*
20,1,$1+$1,$2,$3,$4,$5,0*
20,1,$1+$1,$4,$5,$6,$7,0*
20,1,$1+$1,$6,$7,$8,$9,0*
20,1,$1+$1,$8,$9,$2,$3,0*%
G04 Aperture macros list end*
%ADD10C,0.125000*%
%ADD11C,0.150000*%
%ADD12C,0.120000*%
%ADD13R,0.500000X0.500000*%
%ADD14C,2.200000*%
%ADD15RoundRect,0.237500X-0.287500X-0.237500X0.287500X-0.237500X0.287500X0.237500X-0.287500X0.237500X0*%
%ADD16RoundRect,0.237500X0.250000X0.237500X-0.250000X0.237500X-0.250000X-0.237500X0.250000X-0.237500X0*%
%ADD17R,1.000000X1.000000*%
%ADD18O,1.000000X1.000000*%
G04 APERTURE END LIST*
D10*
X146140476Y-76524000D02*
X146064285Y-76485904D01*
X145950000Y-76485904D01*
X145835714Y-76524000D01*
X145759523Y-76600190D01*
X145721428Y-76676380D01*
X145683333Y-76828761D01*
X145683333Y-76943047D01*
X145721428Y-77095428D01*
X145759523Y-77171619D01*
X145835714Y-77247809D01*
X145950000Y-77285904D01*
X146026190Y-77285904D01*
X146140476Y-77247809D01*
X146178571Y-77209714D01*
X146178571Y-76943047D01*
X146026190Y-76943047D01*
X146521428Y-77285904D02*
X146521428Y-76485904D01*
X146978571Y-77285904D01*
X146978571Y-76485904D01*
X147359523Y-77285904D02*
X147359523Y-76485904D01*
X147550000Y-76485904D01*
X147664285Y-76524000D01*
X147740476Y-76600190D01*
X147778571Y-76676380D01*
X147816666Y-76828761D01*
X147816666Y-76943047D01*
X147778571Y-77095428D01*
X147740476Y-77171619D01*
X147664285Y-77247809D01*
X147550000Y-77285904D01*
X147359523Y-77285904D01*
X145797619Y-78040571D02*
X145797619Y-78573904D01*
X145797619Y-78116761D02*
X145835714Y-78078666D01*
X145911904Y-78040571D01*
X146026190Y-78040571D01*
X146102380Y-78078666D01*
X146140476Y-78154857D01*
X146140476Y-78573904D01*
X146978571Y-78497714D02*
X146940476Y-78535809D01*
X146826190Y-78573904D01*
X146750000Y-78573904D01*
X146635714Y-78535809D01*
X146559523Y-78459619D01*
X146521428Y-78383428D01*
X146483333Y-78231047D01*
X146483333Y-78116761D01*
X146521428Y-77964380D01*
X146559523Y-77888190D01*
X146635714Y-77812000D01*
X146750000Y-77773904D01*
X146826190Y-77773904D01*
X146940476Y-77812000D01*
X146978571Y-77850095D01*
X147283333Y-78535809D02*
X147397619Y-78573904D01*
X147588095Y-78573904D01*
X147664285Y-78535809D01*
X147702380Y-78497714D01*
X147740476Y-78421523D01*
X147740476Y-78345333D01*
X147702380Y-78269142D01*
X147664285Y-78231047D01*
X147588095Y-78192952D01*
X147435714Y-78154857D01*
X147359523Y-78116761D01*
X147321428Y-78078666D01*
X147283333Y-78002476D01*
X147283333Y-77926285D01*
X147321428Y-77850095D01*
X147359523Y-77812000D01*
X147435714Y-77773904D01*
X147626190Y-77773904D01*
X147740476Y-77812000D01*
X146273809Y-79785714D02*
X146235714Y-79823809D01*
X146121428Y-79861904D01*
X146045238Y-79861904D01*
X145930952Y-79823809D01*
X145854761Y-79747619D01*
X145816666Y-79671428D01*
X145778571Y-79519047D01*
X145778571Y-79404761D01*
X145816666Y-79252380D01*
X145854761Y-79176190D01*
X145930952Y-79100000D01*
X146045238Y-79061904D01*
X146121428Y-79061904D01*
X146235714Y-79100000D01*
X146273809Y-79138095D01*
X146997619Y-79861904D02*
X146616666Y-79861904D01*
X146616666Y-79061904D01*
X147264285Y-79861904D02*
X147264285Y-79061904D01*
X147721428Y-79861904D02*
X147378571Y-79404761D01*
X147721428Y-79061904D02*
X147264285Y-79519047D01*
X145492857Y-81149904D02*
X145492857Y-80349904D01*
X145759523Y-80921333D01*
X146026190Y-80349904D01*
X146026190Y-81149904D01*
X146407142Y-81149904D02*
X146407142Y-80349904D01*
X146750000Y-81111809D02*
X146864285Y-81149904D01*
X147054761Y-81149904D01*
X147130952Y-81111809D01*
X147169047Y-81073714D01*
X147207142Y-80997523D01*
X147207142Y-80921333D01*
X147169047Y-80845142D01*
X147130952Y-80807047D01*
X147054761Y-80768952D01*
X146902380Y-80730857D01*
X146826190Y-80692761D01*
X146788095Y-80654666D01*
X146750000Y-80578476D01*
X146750000Y-80502285D01*
X146788095Y-80426095D01*
X146826190Y-80388000D01*
X146902380Y-80349904D01*
X147092857Y-80349904D01*
X147207142Y-80388000D01*
X147702380Y-80349904D02*
X147854761Y-80349904D01*
X147930952Y-80388000D01*
X148007142Y-80464190D01*
X148045238Y-80616571D01*
X148045238Y-80883238D01*
X148007142Y-81035619D01*
X147930952Y-81111809D01*
X147854761Y-81149904D01*
X147702380Y-81149904D01*
X147626190Y-81111809D01*
X147550000Y-81035619D01*
X147511904Y-80883238D01*
X147511904Y-80616571D01*
X147550000Y-80464190D01*
X147626190Y-80388000D01*
X147702380Y-80349904D01*
X145492857Y-82437904D02*
X145492857Y-81637904D01*
X145759523Y-82209333D01*
X146026190Y-81637904D01*
X146026190Y-82437904D01*
X146559523Y-81637904D02*
X146711904Y-81637904D01*
X146788095Y-81676000D01*
X146864285Y-81752190D01*
X146902380Y-81904571D01*
X146902380Y-82171238D01*
X146864285Y-82323619D01*
X146788095Y-82399809D01*
X146711904Y-82437904D01*
X146559523Y-82437904D01*
X146483333Y-82399809D01*
X146407142Y-82323619D01*
X146369047Y-82171238D01*
X146369047Y-81904571D01*
X146407142Y-81752190D01*
X146483333Y-81676000D01*
X146559523Y-81637904D01*
X147207142Y-82399809D02*
X147321428Y-82437904D01*
X147511904Y-82437904D01*
X147588095Y-82399809D01*
X147626190Y-82361714D01*
X147664285Y-82285523D01*
X147664285Y-82209333D01*
X147626190Y-82133142D01*
X147588095Y-82095047D01*
X147511904Y-82056952D01*
X147359523Y-82018857D01*
X147283333Y-81980761D01*
X147245238Y-81942666D01*
X147207142Y-81866476D01*
X147207142Y-81790285D01*
X147245238Y-81714095D01*
X147283333Y-81676000D01*
X147359523Y-81637904D01*
X147550000Y-81637904D01*
X147664285Y-81676000D01*
X148007142Y-82437904D02*
X148007142Y-81637904D01*
D11*
X123297619Y-76714285D02*
X124297619Y-76714285D01*
X124297619Y-76952380D01*
X124250000Y-77095238D01*
X124154761Y-77190476D01*
X124059523Y-77238095D01*
X123869047Y-77285714D01*
X123726190Y-77285714D01*
X123535714Y-77238095D01*
X123440476Y-77190476D01*
X123345238Y-77095238D01*
X123297619Y-76952380D01*
X123297619Y-76714285D01*
X123583333Y-77666666D02*
X123583333Y-78142857D01*
X123297619Y-77571428D02*
X124297619Y-77904761D01*
X123297619Y-78238095D01*
X124297619Y-78428571D02*
X124297619Y-79000000D01*
X123297619Y-78714285D02*
X124297619Y-78714285D01*
X123583333Y-79285714D02*
X123583333Y-79761904D01*
X123297619Y-79190476D02*
X124297619Y-79523809D01*
X123297619Y-79857142D01*
X123297619Y-80952380D02*
X124297619Y-80952380D01*
X124297619Y-81333333D01*
X124250000Y-81428571D01*
X124202380Y-81476190D01*
X124107142Y-81523809D01*
X123964285Y-81523809D01*
X123869047Y-81476190D01*
X123821428Y-81428571D01*
X123773809Y-81333333D01*
X123773809Y-80952380D01*
X124297619Y-82142857D02*
X124297619Y-82333333D01*
X124250000Y-82428571D01*
X124154761Y-82523809D01*
X123964285Y-82571428D01*
X123630952Y-82571428D01*
X123440476Y-82523809D01*
X123345238Y-82428571D01*
X123297619Y-82333333D01*
X123297619Y-82142857D01*
X123345238Y-82047619D01*
X123440476Y-81952380D01*
X123630952Y-81904761D01*
X123964285Y-81904761D01*
X124154761Y-81952380D01*
X124250000Y-82047619D01*
X124297619Y-82142857D01*
X123297619Y-83571428D02*
X123773809Y-83238095D01*
X123297619Y-83000000D02*
X124297619Y-83000000D01*
X124297619Y-83380952D01*
X124250000Y-83476190D01*
X124202380Y-83523809D01*
X124107142Y-83571428D01*
X123964285Y-83571428D01*
X123869047Y-83523809D01*
X123821428Y-83476190D01*
X123773809Y-83380952D01*
X123773809Y-83000000D01*
X124297619Y-83857142D02*
X124297619Y-84428571D01*
X123297619Y-84142857D02*
X124297619Y-84142857D01*
X133309523Y-86166666D02*
X133785714Y-86166666D01*
X133214285Y-86452380D02*
X133547619Y-85452380D01*
X133880952Y-86452380D01*
X134690476Y-86452380D02*
X134214285Y-86452380D01*
X134214285Y-85452380D01*
X134880952Y-85452380D02*
X135452380Y-85452380D01*
X135166666Y-86452380D02*
X135166666Y-85452380D01*
X136547619Y-86452380D02*
X136547619Y-85452380D01*
X137119047Y-86452380D01*
X137119047Y-85452380D01*
X137595238Y-85928571D02*
X137928571Y-85928571D01*
X138071428Y-86452380D02*
X137595238Y-86452380D01*
X137595238Y-85452380D01*
X138071428Y-85452380D01*
X138357142Y-85452380D02*
X138928571Y-85452380D01*
X138642857Y-86452380D02*
X138642857Y-85452380D01*
X139880952Y-85452380D02*
X140452380Y-85452380D01*
X140166666Y-86452380D02*
X140166666Y-85452380D01*
X140785714Y-86452380D02*
X140785714Y-85452380D01*
X141261904Y-85928571D02*
X141595238Y-85928571D01*
X141738095Y-86452380D02*
X141261904Y-86452380D01*
X141261904Y-85452380D01*
X141738095Y-85452380D01*
X142119047Y-86404761D02*
X142261904Y-86452380D01*
X142500000Y-86452380D01*
X142595238Y-86404761D01*
X142642857Y-86357142D01*
X142690476Y-86261904D01*
X142690476Y-86166666D01*
X142642857Y-86071428D01*
X142595238Y-86023809D01*
X142500000Y-85976190D01*
X142309523Y-85928571D01*
X142214285Y-85880952D01*
X142166666Y-85833333D01*
X142119047Y-85738095D01*
X142119047Y-85642857D01*
X142166666Y-85547619D01*
X142214285Y-85500000D01*
X142309523Y-85452380D01*
X142547619Y-85452380D01*
X142690476Y-85500000D01*
%TO.C,H2*%
X148738095Y-75502380D02*
X148738095Y-74502380D01*
X148738095Y-74978571D02*
X149309523Y-74978571D01*
X149309523Y-75502380D02*
X149309523Y-74502380D01*
X149738095Y-74597619D02*
X149785714Y-74550000D01*
X149880952Y-74502380D01*
X150119047Y-74502380D01*
X150214285Y-74550000D01*
X150261904Y-74597619D01*
X150309523Y-74692857D01*
X150309523Y-74788095D01*
X150261904Y-74930952D01*
X149690476Y-75502380D01*
X150309523Y-75502380D01*
%TO.C,D1*%
X138961904Y-75857380D02*
X138961904Y-74857380D01*
X139200000Y-74857380D01*
X139342857Y-74905000D01*
X139438095Y-75000238D01*
X139485714Y-75095476D01*
X139533333Y-75285952D01*
X139533333Y-75428809D01*
X139485714Y-75619285D01*
X139438095Y-75714523D01*
X139342857Y-75809761D01*
X139200000Y-75857380D01*
X138961904Y-75857380D01*
X140485714Y-75857380D02*
X139914285Y-75857380D01*
X140200000Y-75857380D02*
X140200000Y-74857380D01*
X140104761Y-75000238D01*
X140009523Y-75095476D01*
X139914285Y-75143095D01*
%TO.C,H1*%
X148738095Y-82002380D02*
X148738095Y-81002380D01*
X148738095Y-81478571D02*
X149309523Y-81478571D01*
X149309523Y-82002380D02*
X149309523Y-81002380D01*
X150309523Y-82002380D02*
X149738095Y-82002380D01*
X150023809Y-82002380D02*
X150023809Y-81002380D01*
X149928571Y-81145238D01*
X149833333Y-81240476D01*
X149738095Y-81288095D01*
%TO.C,H3*%
X119098095Y-79282380D02*
X119098095Y-78282380D01*
X119098095Y-78758571D02*
X119669523Y-78758571D01*
X119669523Y-79282380D02*
X119669523Y-78282380D01*
X120050476Y-78282380D02*
X120669523Y-78282380D01*
X120336190Y-78663333D01*
X120479047Y-78663333D01*
X120574285Y-78710952D01*
X120621904Y-78758571D01*
X120669523Y-78853809D01*
X120669523Y-79091904D01*
X120621904Y-79187142D01*
X120574285Y-79234761D01*
X120479047Y-79282380D01*
X120193333Y-79282380D01*
X120098095Y-79234761D01*
X120050476Y-79187142D01*
%TO.C,R1*%
X135088333Y-78717380D02*
X134755000Y-78241190D01*
X134516904Y-78717380D02*
X134516904Y-77717380D01*
X134897857Y-77717380D01*
X134993095Y-77765000D01*
X135040714Y-77812619D01*
X135088333Y-77907857D01*
X135088333Y-78050714D01*
X135040714Y-78145952D01*
X134993095Y-78193571D01*
X134897857Y-78241190D01*
X134516904Y-78241190D01*
X136040714Y-78717380D02*
X135469285Y-78717380D01*
X135755000Y-78717380D02*
X135755000Y-77717380D01*
X135659761Y-77860238D01*
X135564523Y-77955476D01*
X135469285Y-78003095D01*
%TO.C,J1*%
X143811666Y-74592380D02*
X143811666Y-75306666D01*
X143764047Y-75449523D01*
X143668809Y-75544761D01*
X143525952Y-75592380D01*
X143430714Y-75592380D01*
X144811666Y-75592380D02*
X144240238Y-75592380D01*
X144525952Y-75592380D02*
X144525952Y-74592380D01*
X144430714Y-74735238D01*
X144335476Y-74830476D01*
X144240238Y-74878095D01*
D12*
%TO.C,D1*%
X140500000Y-76100000D02*
X138040000Y-76100000D01*
X138040000Y-77570000D02*
X140500000Y-77570000D01*
X138040000Y-76100000D02*
X138040000Y-77570000D01*
%TO.C,R1*%
X135509724Y-77357500D02*
X135000276Y-77357500D01*
X135509724Y-76312500D02*
X135000276Y-76312500D01*
%TO.C,J1*%
X144452530Y-82610000D02*
X145255000Y-82610000D01*
X143035000Y-76835000D02*
X143035000Y-76075000D01*
X143035000Y-77595000D02*
X143035000Y-82610000D01*
X143035000Y-76075000D02*
X144145000Y-76075000D01*
X143035000Y-82610000D02*
X143837470Y-82610000D01*
X144708471Y-77595000D02*
X145255000Y-77595000D01*
X145255000Y-77595000D02*
X145255000Y-82610000D01*
X143035000Y-77595000D02*
X143581529Y-77595000D01*
%TD*%
%LPC*%
%TO.C,NT3*%
G36*
X138045000Y-84405000D02*
G01*
X137545000Y-84405000D01*
X137545000Y-84605000D01*
X138045000Y-84605000D01*
X138045000Y-84405000D01*
G37*
%TO.C,NT2*%
G36*
X135505000Y-84405000D02*
G01*
X135005000Y-84405000D01*
X135005000Y-84605000D01*
X135505000Y-84605000D01*
X135505000Y-84405000D01*
G37*
%TO.C,NT1*%
G36*
X140585000Y-84405000D02*
G01*
X140085000Y-84405000D01*
X140085000Y-84605000D01*
X140585000Y-84605000D01*
X140585000Y-84405000D01*
G37*
%TD*%
D13*
%TO.C,NT3*%
X137795000Y-84155000D03*
X137795000Y-84855000D03*
%TD*%
%TO.C,NT2*%
X135255000Y-84155000D03*
X135255000Y-84855000D03*
%TD*%
%TO.C,NT1*%
X140335000Y-84155000D03*
X140335000Y-84855000D03*
%TD*%
D14*
%TO.C,H2*%
X149500000Y-78250000D03*
%TD*%
D15*
%TO.C,D1*%
X138825000Y-76835000D03*
X140575000Y-76835000D03*
%TD*%
D14*
%TO.C,H1*%
X149500000Y-84750000D03*
%TD*%
%TO.C,H3*%
X119500000Y-81750000D03*
%TD*%
D16*
%TO.C,R1*%
X134342500Y-76835000D03*
X136167500Y-76835000D03*
%TD*%
D17*
%TO.C,J1*%
X144145000Y-76835000D03*
D18*
X144145000Y-78105000D03*
X144145000Y-79375000D03*
X144145000Y-80645000D03*
X144145000Y-81915000D03*
%TD*%
%TO.C,J2*%
X127010000Y-78090000D03*
X128280000Y-78090000D03*
X127010000Y-79360000D03*
X128280000Y-79360000D03*
X127010000Y-80630000D03*
X128280000Y-80630000D03*
X127010000Y-81900000D03*
X128280000Y-81900000D03*
X127010000Y-83170000D03*
D17*
X128280000Y-83170000D03*
%TD*%
M02*
